<svg width="1500" height="1000" xmlns="http://www.w3.org/2000/svg"><path fill="#fff" d="M0 0h1500v1000H0z"/><rect x="616" y="719" width="7" height="9" fill="#EAFFD0" rx="0" transform="matrix(-.1049 .99954 -.9968 -.0349 1341.423 140.35)"/><rect x="371" y="479" width="5" height="14" fill="#FCE38A" rx="0" transform="matrix(.29602 .8988 -.96823 .43837 656.52 -62.748)"/><rect x="247" y="627" width="5" height="12" fill="#95E1D3" rx="0" transform="matrix(-1.01578 .13936 .0522 -.99163 382.765 1212.853)"/><rect x="228" y="671" width="6" height="7" fill="#FCE38A" rx="0" transform="matrix(1.00397 .01746 .25353 1.00046 31.823 -12.409)"/><rect x="707" y="945" width="5" height="9" fill="#FCE38A" rx="0" transform="matrix(.67394 .63279 -.74806 .78143 895.766 -315.998)"/><rect x="529" y="644" width="5" height="8" fill="#95E1D3" rx="0" transform="matrix(.59208 1.02568 -.95429 .03582 1085.605 202.348)"/><rect x="404" y="160" width="5" height="12" fill="#FCE38A" rx="0" transform="matrix(.83918 .57358 -.54497 .81915 161.635 -203.138)"/><rect x="730" y="798" width="7" height="10" fill="#EAFFD0" rx="0" transform="matrix(1.12461 .44816 .07447 .91887 178.976 -107.674)"/><rect x="244" y="435" width="8" height="18" fill="#EAFFD0" rx="0" transform="matrix(-.51144 .7627 -.85064 -.68673 735.017 617.016)"/><rect x="1299" y="216" width="8" height="10" fill="#EAFFD0" rx="0" transform="matrix(.44123 1.04553 -.96415 -.01825 1039.249 -738.929)"/><rect x="1392" y="948" width="7" height="17" fill="#ff75a0" rx="0" transform="matrix(-.4782 .711 -.92827 -.711 3185.198 791.043)"/><rect x="953" y="331" width="8" height="9" fill="#FCE38A" rx="0" transform="matrix(.79864 .74264 -.60182 .69252 394.615 -438.798)"/><rect x="980" y="967" width="7" height="19" fill="#95E1D3" rx="0" transform="matrix(-.0955 .92275 -1.04318 -.39169 2356.702 520.226)"/><rect x="496" y="449" width="9" height="25" fill="#FCE38A" rx="0" transform="matrix(1.02509 -.15838 -.15838 1 0 0)"/><rect x="1231" y="879" width="5" height="8" fill="#ff75a0" rx="0" transform="matrix(-.99936 .20804 -.1052 -.97874 2500.37 1447.54)"/><rect x="1371" y="527" width="8" height="19" fill="#FCE38A" rx="0" transform="matrix(-.49869 .87676 -.86414 -.486 2547.388 -504.453)"/><rect x="417" y="457" width="9" height="25" fill="#EAFFD0" rx="0" transform="matrix(1.00122 .10478 -.0175 .99695 16.41 -13.26)"/><rect x="144" y="157" width="9" height="16" fill="#ff75a0" rx="0" transform="matrix(.06993 1 -.99756 .03492 313.888 5.552)"/><rect x="1398" y="540" width="5" height="7" fill="#EAFFD0" rx="0" transform="matrix(.78076 .7098 -.62807 .7098 730.23 -958.894)"/><rect x="912" y="605" width="8" height="13" fill="#ff75a0" rx="0" transform="matrix(.41464 .96656 -.9157 .27716 1224.605 -539.622)"/><rect x="169" y="859" width="8" height="12" fill="#95E1D3" rx="0" transform="matrix(.96582 .34966 -.20635 .96069 121.349 10.288)"/><rect x="992" y="888" width="8" height="16" fill="#FCE38A" rx="0" transform="matrix(.40648 .99255 -.9576 .12187 1706.083 -201.77)"/><rect x="1119" y="307" width="6" height="14" fill="#95E1D3" rx="0" transform="matrix(.99863 .01745 -.08737 .99985 7.017 -19.534)"/><rect x="735" y="473" width="5" height="14" fill="#ff75a0" rx="0" transform="matrix(-.39722 .85638 -.91949 -.53513 1579.725 1.63)"/><rect x="978" y="759" width="5" height="10" fill="#ff75a0" rx="0" transform="matrix(-.19033 .97949 -.98048 -.2082 1966.036 -88.713)"/><rect x="505" y="480" width="6" height="9" fill="#FCE38A" rx="0" transform="matrix(.99027 .15646 -.13915 .98784 88.97 -82.456)"/><rect x="484" y="242" width="6" height="17" fill="#95E1D3" rx="0" transform="matrix(.64944 .7546 -.74043 .67945 382.277 -373.069)"/><rect x="569" y="618" width="6" height="17" fill="#ff75a0" rx="0" transform="matrix(-.60736 .8851 -.80687 -.47062 1373.602 375.065)"/><rect x="316" y="963" width="6" height="13" fill="#FCE38A" rx="0" transform="matrix(-.63984 .50191 -.83807 -.90547 1502.712 1772.722)"/><rect x="842" y="15" width="9" height="23" fill="#95E1D3" rx="0" transform="matrix(1.08882 .3678 .11756 .95814 -18.834 -114.799)"/><rect x="996" y="174" width="8" height="10" fill="#EAFFD0" rx="0" transform="matrix(-.51943 .92107 -.86522 -.39097 1659.156 -707.003)"/><rect x="351" y="170" width="5" height="13" fill="#FCE38A" rx="0" transform="matrix(1.01224 .54154 -.16193 .90128 44.628 -59.152)"/><rect x="247" y="883" width="7" height="17" fill="#ff75a0" rx="0" transform="matrix(-.04407 .95996 -1.02824 -.29349 1477.637 890.76)"/><rect x="1215" y="598" width="9" height="12" fill="#FCE38A" rx="0" transform="matrix(.84337 .59879 -.50924 .82416 410.19 -386.966)"/><rect x="468" y="516" width="5" height="5" fill="#EAFFD0" rx="0" transform="matrix(.90458 .49965 -.3695 .9014 158.413 -66.65)"/><rect x="243" y="41" width="9" height="12" fill="#EAFFD0" rx="0" transform="matrix(.9962 0 -.13976 1.00382 6.182 -21.833)"/><rect x="158" y="795" width="6" height="10" fill="#FCE38A" rx="0" transform="matrix(-1.00137 .05234 0 -.99863 280.295 1590.478)"/><rect x="571" y="775" width="9" height="24" fill="#95E1D3" rx="0" transform="matrix(-.90101 .35886 -.43938 -.93486 1468.364 1346.373)"/><rect x="1145" y="980" width="5" height="7" fill="#95E1D3" rx="0" transform="matrix(-1.00296 .15665 -.05126 -.98904 2183.515 1836.608)"/><rect x="851" y="307" width="5" height="11" fill="#ff75a0" rx="0" transform="matrix(-.54008 .8191 -.82846 -.59511 1526.3 -65.45)"/><rect x="923" y="189" width="5" height="13" fill="#FCE38A" rx="0" transform="matrix(.19126 1.00921 -.9842 .03524 946.578 -615.345)"/><rect x="244" y="429" width="6" height="8" fill="#EAFFD0" rx="0" transform="matrix(.8336 .46947 -.56227 .88295 239.054 -65.276)"/><rect x="1305" y="85" width="6" height="17" fill="#FCE38A" rx="0" transform="matrix(-.01407 .85658 -1.15758 -.59978 1604.53 -570.932)"/><rect x="1058" y="372" width="6" height="17" fill="#EAFFD0" rx="0" transform="matrix(.79408 .71802 -.59865 .71802 426.449 -467.436)"/><rect x="630" y="768" width="7" height="16" fill="#EAFFD0" rx="0" transform="matrix(-.1447 .97797 -.98376 -.26205 1669.603 259.469)"/><rect x="1271" y="386" width="6" height="11" fill="#ff75a0" rx="0" transform="matrix(.80914 .57358 -.58787 .81915 466.475 -659.934)"/><rect x="665" y="593" width="9" height="9" fill="#FCE38A" rx="0" transform="matrix(.77958 .44005 -.67413 .90223 455.337 -294.765)"/><rect x="1106" y="429" width="6" height="17" fill="#EAFFD0" rx="0" transform="matrix(-.64726 .49085 -.86958 -.88552 2383.071 456.208)"/><rect x="399" y="949" width="8" height="18" fill="#ff75a0" rx="0" transform="matrix(.95242 .43864 -.32703 .89934 481.972 -94.414)"/><rect x="1489" y="931" width="7" height="9" fill="#EAFFD0" rx="0" transform="matrix(.9695 .1397 -.25966 .99405 260.341 -333.52)"/><rect x="410" y="378" width="6" height="13" fill="#95E1D3" rx="0" transform="matrix(-.91226 .24374 -.4439 -.97758 998.515 710.426)"/><rect x="527" y="116" width="7" height="15" fill="#ff75a0" rx="0" transform="matrix(-.37666 .78478 -.96922 -.6355 884.94 -139.786)"/><rect x="1188" y="487" width="7" height="13" fill="#EAFFD0" rx="0" transform="matrix(.30996 1.00786 -.95414 .12375 1305.33 -558.34)"/><rect x="1371" y="760" width="9" height="14" fill="#EAFFD0" rx="0" transform="matrix(.25896 .97542 -.95581 .26136 1833.042 -968.467)"/><rect x="163" y="578" width="8" height="14" fill="#EAFFD0" rx="0" transform="matrix(-.73936 .76412 -.66598 -.66424 699.578 819.52)"/><rect x="1220" y="639" width="7" height="15" fill="#FCE38A" rx="0" transform="matrix(-.82659 .4068 -.60167 -.91368 2768.137 718.123)"/><rect x="164" y="672" width="6" height="13" fill="#FCE38A" rx="0" transform="matrix(-.63798 .65766 -.78662 -.75655 879.808 1093.67)"/><rect x="1228" y="879" width="9" height="15" fill="#95E1D3" rx="0" transform="matrix(-.68558 .52015 -.73507 -.90093 2750.755 1397.5)"/><rect x="274" y="76" width="6" height="9" fill="#95E1D3" rx="0" transform="matrix(.83733 .74496 -.58842 .67076 108.245 -160.48)"/><rect x="115" y="630" width="5" height="8" fill="#EAFFD0" rx="0" transform="matrix(.14437 1.00737 -.9826 .07044 854.75 454.46)"/><rect x="1468" y="138" width="7" height="17" fill="#FCE38A" rx="0" transform="matrix(-.25658 .9479 -.9513 -.38298 1948.24 -879.449)"/><rect x="651" y="604" width="6" height="11" fill="#FCE38A" rx="0" transform="matrix(-.1753 .93395 -.99267 -.41582 1399.814 391.15)"/><rect x="65" y="291" width="5" height="9" fill="#95E1D3" rx="0" transform="matrix(.54338 .87039 -.82242 .52298 334.127 70.305)"/><rect x="447" y="173" width="9" height="17" fill="#FCE38A" rx="0" transform="matrix(.75385 .68366 -.6543 .73314 245.648 -291.811)"/><rect x="532" y="407" width="8" height="17" fill="#ff75a0" rx="0" transform="matrix(-.9791 .05254 -.35225 -1.00244 1305.443 850.75)"/><rect x="1134" y="361" width="7" height="17" fill="#FCE38A" rx="0" transform="matrix(.95747 .3525 -.20632 .96846 55.963 -105.693)"/><rect x="447" y="267" width="7" height="14" fill="#95E1D3" rx="0" transform="matrix(-.4728 .79973 -.89414 -.60264 961.713 55.235)"/><rect x="1394" y="269" width="8" height="15" fill="#EAFFD0" rx="0" transform="matrix(-.9716 .2598 -.22297 -.96962 2768.97 303.697)"/><rect x="1101" y="632" width="9" height="16" fill="#95E1D3" rx="0" transform="matrix(.51152 .73538 -.88284 .68575 1040.712 -728.041)"/><rect x="83" y="226" width="7" height="8" fill="#EAFFD0" rx="0" transform="matrix(.46829 .8191 -.88062 .59511 252.31 8.572)"/><rect x="1397" y="477" width="5" height="13" fill="#FCE38A" rx="0" transform="matrix(.45186 .99313 -.93535 .1573 1341.934 -835.343)"/><rect x="993" y="898" width="7" height="9" fill="#FCE38A" rx="0" transform="matrix(-1.00427 .40773 -.19698 -.91578 2043.12 1253.003)"/><rect x="148" y="989" width="6" height="8" fill="#ff75a0" rx="0" transform="matrix(1.04446 .20804 .107 .97874 173.283 -5.033)"/><rect x="1140" y="137" width="7" height="7" fill="#ff75a0" rx="0" transform="matrix(-.8899 .47012 -.4535 -.88416 2227.62 -332.781)"/><rect x="1482" y="663" width="7" height="11" fill="#95E1D3" rx="0" transform="matrix(.53655 .74598 -.8574 .67169 1214.512 -1018.645)"/><rect x="372" y="294" width="8" height="16" fill="#95E1D3" rx="0" transform="matrix(-.01756 1.00261 -.99493 -.1409 670.445 27.125)"/><rect x="1315" y="434" width="7" height="16" fill="#95E1D3" rx="0" transform="matrix(-.63131 .76412 -.75991 -.66424 2527.877 -480.726)"/><rect x="1435" y="640" width="9" height="23" fill="#FCE38A" rx="0" transform="matrix(.2573 1.05082 -.96062 -.0367 1675.432 -369.529)"/><rect x="1255" y="615" width="7" height="19" fill="#FCE38A" rx="0" transform="matrix(-.0349 .98872 -.9994 -.34044 1926.54 -22.436)"/><rect x="1165" y="844" width="6" height="14" fill="#ff75a0" rx="0" transform="matrix(1.00718 .7524 -.4222 .67747 667.638 -419.348)"/><rect x="569" y="734" width="8" height="10" fill="#95E1D3" rx="0" transform="matrix(-.14898 .93872 -1.00809 -.36034 1623.891 407.18)"/><rect x="1149" y="836" width="9" height="18" fill="#ff75a0" rx="0" transform="matrix(-.06854 1 -.994 -.08749 2150.704 -335.49)"/><rect x="1381" y="733" width="6" height="6" fill="#ff75a0" rx="0" transform="matrix(-.42715 .75655 -.95047 -.65766 2866.984 269.749)"/><rect x="436" y="205" width="5" height="13" fill="#95E1D3" rx="0" transform="matrix(.66119 .95853 -.73495 .44697 291.353 -152.362)"/><rect x="455" y="528" width="7" height="13" fill="#95E1D3" rx="0" transform="matrix(-.68949 .48666 -.81094 -.87796 1372.848 820.75)"/><rect x="445" y="295" width="9" height="20" fill="#95E1D3" rx="0" transform="matrix(-.05473 .9397 -1.04426 -.34202 885.847 -13.076)"/><rect x="868" y="557" width="8" height="13" fill="#FCE38A" rx="0" transform="matrix(.98194 .01772 -.17309 1.01527 120.438 -177.816)"/><rect x="341" y="701" width="5" height="6" fill="#ff75a0" rx="0" transform="matrix(.83433 .86392 -.63617 .53984 640.676 93.967)"/><rect x="915" y="914" width="5" height="7" fill="#95E1D3" rx="0" transform="matrix(.92943 .89416 -.60318 .49564 958.294 -162.62)"/><rect x="1391" y="543" width="9" height="11" fill="#ff75a0" rx="0" transform="matrix(-1.0503 -.17753 -.3236 -1.0068 3281.016 1645.097)"/><rect x="637" y="207" width="8" height="22" fill="#FCE38A" rx="0" transform="matrix(-.98964 -.07257 -.37228 -1.03777 1420.156 674.552)"/><rect x="1483" y="874" width="9" height="22" fill="#FCE38A" rx="0" transform="matrix(-.8416 .40698 -.56684 -.9141 3372.706 1140.536)"/><rect x="544" y="928" width="5" height="13" fill="#FCE38A" rx="0" transform="matrix(.85186 .77357 -.5779 .6491 763.139 -18.04)"/><rect x="103" y="182" width="6" height="16" fill="#95E1D3" rx="0" transform="matrix(.73776 .57436 -.68743 .82028 142.272 -32.29)"/><rect x="1256" y="243" width="9" height="11" fill="#ff75a0" rx="0" transform="matrix(.26404 1.0238 -.99521 -.0716 1231.692 -733.205)"/><rect x="819" y="218" width="9" height="12" fill="#FCE38A" rx="0" transform="matrix(-.17365 .93501 -.9848 -.45604 1187.096 -207.698)"/><rect x="355" y="153" width="6" height="15" fill="#FCE38A" rx="0" transform="matrix(-.61092 .66247 -.78145 -.7895 693.41 139.31)"/><rect x="274" y="806" width="9" height="23" fill="#95E1D3" rx="0" transform="matrix(.89507 .72209 -.52052 .69731 618.387 70.712)"/><rect x="1486" y="916" width="8" height="13" fill="#EAFFD0" rx="0" transform="matrix(-.83142 .54873 -.54212 -.84497 3319.725 701.428)"/><rect x="842" y="859" width="8" height="19" fill="#95E1D3" rx="0" transform="matrix(1.0322 .7264 -.30778 .7522 459.154 -140.677)"/><rect x="136" y="874" width="8" height="12" fill="#ff75a0" rx="0" transform="matrix(.98841 .1746 -.12165 .99023 61.786 -1.135)"/><rect x="195" y="430" width="7" height="18" fill="#95E1D3" rx="0" transform="matrix(-.08799 .9783 -1.00348 -.20794 703 339.56)"/><rect x="542" y="867" width="7" height="18" fill="#ff75a0" rx="0" transform="matrix(-1.0159 .2443 -.0188 -.97983 1046.21 1524.402)"/><rect x="1417" y="902" width="5" height="6" fill="#ff75a0" rx="0" transform="matrix(.84394 .57921 -.5212 .8272 830.353 -865.31)"/><rect x="602" y="710" width="6" height="12" fill="#EAFFD0" rx="0" transform="matrix(.32674 .96656 -.94091 .27716 1184.349 -130.798)"/><rect x="1479" y="539" width="5" height="9" fill="#95E1D3" rx="0" transform="matrix(-.45668 .8191 -.88905 -.59511 2735.7 -581.202)"/><rect x="470" y="603" width="6" height="9" fill="#FCE38A" rx="0" transform="matrix(.98109 .27907 -.16184 .97324 249.969 -190.663)"/><rect x="1088" y="711" width="9" height="16" fill="#ff75a0" rx="0" transform="matrix(-.16965 .93715 -1.00195 -.35974 2177.003 -141.763)"/><rect x="812" y="764" width="9" height="23" fill="#EAFFD0" rx="0" transform="matrix(-.90833 .35842 -.42371 -.93372 1953.343 1192.698)"/><rect x="1207" y="203" width="8" height="22" fill="#ff75a0" rx="0" transform="matrix(-.17471 .95864 -.98973 -.29309 1650.03 -799.511)"/><rect x="177" y="823" width="5" height="14" fill="#EAFFD0" rx="0" transform="matrix(.62304 .92718 -.8268 .3746 976.312 352.647)"/><rect x="138" y="165" width="6" height="14" fill="#95E1D3" rx="0" transform="matrix(-.637 .61308 -.78578 -.81358 376.422 252.9)"/><rect x="1086" y="499" width="6" height="8" fill="#FCE38A" rx="0" transform="matrix(-.97701 .22526 -.2074 -.9757 2218.13 805.545)"/><rect x="222" y="404" width="5" height="10" fill="#EAFFD0" rx="0" transform="matrix(.1399 .96656 -.99449 .27716 586.38 55.055)"/><rect x="457" y="529" width="8" height="23" fill="#FCE38A" rx="0" transform="matrix(.71936 1.02253 -.86403 .16195 799.399 105.103)"/><rect x="799" y="878" width="9" height="14" fill="#95E1D3" rx="0" transform="matrix(.42578 .8336 -.91242 .56227 1226.915 -366.864)"/><rect x="653" y="819" width="8" height="18" fill="#95E1D3" rx="0" transform="matrix(.25046 .99985 -1.00452 -.01745 1546.058 185.55)"/><rect x="810" y="299" width="8" height="9" fill="#FCE38A" rx="0" transform="matrix(-.91458 .20791 -.50696 -.97815 1805.122 431.128)"/><rect x="1472" y="310" width="8" height="18" fill="#EAFFD0" rx="0" transform="matrix(-.353 .86692 -.91542 -.58474 2235.173 -322.779)"/><rect x="909" y="861" width="6" height="7" fill="#EAFFD0" rx="0" transform="matrix(.42321 .92733 -.90738 .37466 1369.8 -321.036)"/><rect x="720" y="718" width="8" height="17" fill="#95E1D3" rx="0" transform="matrix(.73662 .67747 -.65798 .7524 765.61 -425.284)"/><rect x="1186" y="971" width="6" height="12" fill="#FCE38A" rx="0" transform="matrix(-1.02476 .3439 -.09227 -.94487 2362.644 1366.266)"/><rect x="219" y="600" width="9" height="26" fill="#EAFFD0" rx="0" transform="matrix(.83953 .80169 -.61474 .60411 547.151 83.055)"/><rect x="322" y="290" width="5" height="10" fill="#FCE38A" rx="0" transform="matrix(.81028 .63716 -.56884 .78683 199.066 -92.48)"/><rect x="111" y="838" width="9" height="15" fill="#ff75a0" rx="0" transform="matrix(.84921 .48481 -.53065 .87462 421.767 50.014)"/><rect x="1030" y="884" width="9" height="18" fill="#ff75a0" rx="0" transform="matrix(.26676 1.0043 -1.02376 -.10556 1912.486 93.707)"/><rect x="822" y="455" width="8" height="9" fill="#95E1D3" rx="0" transform="matrix(-.8286 .54497 -.55902 -.83918 1789.867 366.113)"/><rect x="217" y="703" width="7" height="7" fill="#FCE38A" rx="0" transform="matrix(-.48734 .79973 -.88319 -.60264 1087.012 944.37)"/><rect x="915" y="132" width="8" height="10" fill="#FCE38A" rx="0" transform="matrix(.23938 .94913 -.97117 .32681 793.727 -699.622)"/><rect x="516" y="678" width="9" height="12" fill="#EAFFD0" rx="0" transform="matrix(-.9363 .1576 -.43325 -.9951 1422.641 1346.526)"/><rect x="11" y="422" width="7" height="14" fill="#EAFFD0" rx="0" transform="matrix(-.88583 .33553 -.40769 -.97446 141.442 845.795)"/><rect x="331" y="651" width="5" height="11" fill="#EAFFD0" rx="0" transform="matrix(.68323 .58922 -.75677 .811 513.47 -95.742)"/><rect x="835" y="421" width="5" height="9" fill="#ff75a0" rx="0" transform="matrix(.06886 .97267 -1.04527 -.24251 1345.28 -227.354)"/><rect x="1209" y="797" width="8" height="18" fill="#EAFFD0" rx="0" transform="matrix(.93998 .15838 -.37894 1 335.305 -384.24)"/><rect x="1441" y="907" width="5" height="9" fill="#ff75a0" rx="0" transform="matrix(-.6685 .7546 -.72328 -.67945 3171.79 187.015)"/><rect x="576" y="684" width="9" height="24" fill="#EAFFD0" rx="0" transform="matrix(1.07712 .69252 -.28893 .74264 431.22 -120.524)"/><rect x="1234" y="150" width="7" height="18" fill="#ff75a0" rx="0" transform="matrix(.97168 .4574 -.27925 .8977 101.193 -397.82)"/><rect x="875" y="535" width="9" height="10" fill="#ff75a0" rx="0" transform="matrix(.14054 1 -1.01975 -.14054 1399.824 -140.002)"/><rect x="1481" y="78" width="6" height="8" fill="#95E1D3" rx="0" transform="matrix(-.0719 .95106 -1.0281 -.30902 1695.437 -1304.028)"/><rect x="586" y="408" width="7" height="10" fill="#ff75a0" rx="0" transform="matrix(.9855 .32557 -.20947 .94552 145.774 -169.422)"/><rect x="209" y="803" width="7" height="16" fill="#EAFFD0" rx="0" transform="matrix(1.02953 .68962 -.30668 .7659 426.084 96.298)"/><rect x="150" y="949" width="9" height="26" fill="#EAFFD0" rx="0" transform="matrix(.73863 .80456 -.64479 .65152 572.88 252.33)"/><rect x="1448" y="876" width="7" height="15" fill="#95E1D3" rx="0" transform="matrix(-.99134 .10467 -.12166 -.99589 2964.41 1687.505)"/><rect x="1027" y="501" width="5" height="6" fill="#EAFFD0" rx="0" transform="matrix(-.16731 .88222 -1.02895 -.55127 1818.47 168.797)"/><rect x="19" y="240" width="6" height="17" fill="#ff75a0" rx="0" transform="matrix(1.00945 .53984 -.23695 .86392 94.2 26.216)"/><rect x="1263" y="791" width="5" height="13" fill="#95E1D3" rx="0" transform="matrix(1.00553 .15838 .03492 1 0 0)"/><rect x="1466" y="421" width="5" height="10" fill="#EAFFD0" rx="0" transform="matrix(.8903 .60411 -.47386 .80169 401.744 -674.182)"/><rect x="771" y="681" width="8" height="12" fill="#95E1D3" rx="0" transform="matrix(-.08693 .984 -.99296 -.26366 1509.916 256.178)"/><rect x="500" y="952" width="7" height="15" fill="#ff75a0" rx="0" transform="matrix(.5572 1.05082 -.9711 -.0367 1455.646 629.218)"/><rect x="428" y="740" width="9" height="19" fill="#EAFFD0" rx="0" transform="matrix(-.7671 .60182 -.64367 -.79864 1285.979 1087.792)"/><rect x="1160" y="537" width="8" height="18" fill="#EAFFD0" rx="0" transform="matrix(.07206 .9141 -1.1323 -.48603 1977.104 59.26)"/><rect x="412" y="764" width="7" height="18" fill="#ff75a0" rx="0" transform="matrix(1.02902 .84423 -.46399 .59114 631.43 68.87)"/><rect x="1016" y="116" width="9" height="17" fill="#FCE38A" rx="0" transform="matrix(-.90093 .24192 -.52015 -.9703 2040.353 -1.58)"/><rect x="356" y="128" width="7" height="12" fill="#95E1D3" rx="0" transform="matrix(.71755 .81928 -.71816 .57366 219.993 -231.126)"/><rect x="115" y="811" width="7" height="20" fill="#95E1D3" rx="0" transform="matrix(.8687 .3439 -.52104 .94487 372.59 -7.945)"/><rect x="802" y="214" width="5" height="8" fill="#FCE38A" rx="0" transform="matrix(1.05848 .4098 -.06289 .9204 45.647 -213.545)"/><rect x="401" y="32" width="5" height="14" fill="#ff75a0" rx="0" transform="matrix(-.99661 .22526 -.12251 -.9757 809.476 -34.986)"/><rect x="1419" y="175" width="6" height="8" fill="#95E1D3" rx="0" transform="matrix(.62187 .89171 -.74779 .5358 599.517 -777.168)"/><rect x="812" y="557" width="7" height="7" fill="#ff75a0" rx="0" transform="matrix(-.61606 .94522 -.82147 -.36284 1725.37 -136.118)"/><rect x="400" y="883" width="5" height="9" fill="#EAFFD0" rx="0" transform="matrix(.9994 0 .12358 1.00061 28.907 -14.597)"/><rect x="481" y="986" width="7" height="12" fill="#95E1D3" rx="0" transform="matrix(.54584 .87475 -.84061 .48488 1106.36 95.635)"/><rect x="1099" y="875" width="6" height="9" fill="#95E1D3" rx="0" transform="matrix(-.15688 .97163 -.99009 -.24225 2178.392 79.582)"/><rect x="1439" y="141" width="6" height="13" fill="#ff75a0" rx="0" transform="matrix(.6543 .73314 -.75385 .68366 583.595 -909.693)"/><rect x="268" y="461" width="5" height="12" fill="#FCE38A" rx="0" transform="matrix(.61644 .9974 -.90498 .15797 690.465 161.448)"/><rect x="1193" y="486" width="8" height="14" fill="#ff75a0" rx="0" transform="matrix(.59804 1.0081 -.86486 .21428 1032.876 -520.88)"/><rect x="553" y="74" width="5" height="13" fill="#FCE38A" rx="0" transform="matrix(-.28277 .97106 -.94335 -.29688 785.44 -532.973)"/><rect x="383" y="579" width="7" height="12" fill="#95E1D3" rx="0" transform="matrix(.856 .45572 -.5143 .89441 366.146 -148.182)"/><rect x="529" y="420" width="8" height="12" fill="#95E1D3" rx="0" transform="matrix(.84365 .64367 -.54817 .7671 348.601 -215.925)"/><rect x="757" y="144" width="8" height="15" fill="#95E1D3" rx="0" transform="matrix(-.38347 .82916 -.94738 -.55928 1228.377 -381.48)"/><rect x="154" y="841" width="7" height="9" fill="#ff75a0" rx="0" transform="matrix(.99756 0 .14332 1.00244 56.583 -13.078)"/><rect x="960" y="695" width="9" height="16" fill="#ff75a0" rx="0" transform="matrix(.05142 .98054 -1.03078 -.20842 1789.3 -28.764)"/><rect x="519" y="179" width="8" height="19" fill="#ff75a0" rx="0" transform="matrix(.05393 1.00737 -.98891 .07044 695.324 -425.134)"/><rect x="1159" y="30" width="9" height="15" fill="#FCE38A" rx="0" transform="matrix(.87842 .87939 -.63 .50771 230.105 -799.548)"/><rect x="1057" y="388" width="8" height="9" fill="#FCE38A" rx="0" transform="matrix(-.50174 .92402 -.86925 -.39222 1924.061 -526.764)"/><rect x="1173" y="650" width="5" height="12" fill="#95E1D3" rx="0" transform="matrix(-.61278 .56469 -.86241 -.83718 2651.15 706.608)"/><rect x="1028" y="256" width="9" height="15" fill="#FCE38A" rx="0" transform="matrix(-.75687 .37101 -.72362 -.96651 2080.561 411.766)"/><rect x="642" y="698" width="9" height="15" fill="#ff75a0" rx="0" transform="matrix(-.62536 .66923 -.79972 -.74326 1728.523 808.494)"/><rect x="861" y="688" width="9" height="19" fill="#EAFFD0" rx="0" transform="matrix(-.9921 -.01772 -.40957 -1.01527 2221.8 1573.601)"/><rect x="1393" y="987" width="8" height="14" fill="#EAFFD0" rx="0" transform="matrix(1.04281 .46249 -.11559 .90768 278.239 -282.783)"/><rect x="153" y="827" width="6" height="12" fill="#EAFFD0" rx="0" transform="matrix(.17316 .97318 -.98116 .26076 974.716 444.814)"/><rect x="939" y="43" width="6" height="11" fill="#ff75a0" rx="0" transform="matrix(-1.00719 .06985 .08754 -.99893 1886.618 -18.22)"/><rect x="1130" y="587" width="5" height="12" fill="#95E1D3" rx="0" transform="matrix(-.81243 .50069 -.59009 -.86721 2436.688 599.583)"/><rect x="1214" y="901" width="9" height="23" fill="#EAFFD0" rx="0" transform="matrix(-.8841 .1099 -.68693 -1.0457 3273.185 2128.695)"/><rect x="405" y="971" width="5" height="10" fill="#FCE38A" rx="0" transform="matrix(.96774 .19375 -.18261 .99677 350.797 -147.655)"/><rect x="1437" y="539" width="6" height="13" fill="#95E1D3" rx="0" transform="matrix(-.47398 .52881 -1.07009 -.91593 3064.816 779.483)"/><rect x="1221" y="453" width="6" height="12" fill="#ff75a0" rx="0" transform="matrix(-.91637 .16195 -.38889 -1.02253 2510.403 1058.08)"/><rect x="315" y="750" width="8" height="8" fill="#FCE38A" rx="0" transform="matrix(.95106 .45965 -.30902 .90211 248.612 -22.297)"/><rect x="988" y="744" width="8" height="13" fill="#ff75a0" rx="0" transform="matrix(-.42149 .93073 -.90414 -.37604 2111.85 22.648)"/><rect x="1165" y="472" width="9" height="20" fill="#95E1D3" rx="0" transform="matrix(-.84342 .70754 -.56994 -.70754 2360.712 -45.272)"/><rect x="1373" y="112" width="5" height="11" fill="#95E1D3" rx="0" transform="matrix(-.48068 .86189 -.87142 -.51788 2135.269 -1151.749)"/><rect x="512" y="207" width="6" height="9" fill="#FCE38A" rx="0" transform="matrix(-.37056 .90374 -.92577 -.44079 929.39 -214.831)"/><rect x="1327" y="296" width="9" height="9" fill="#ff75a0" rx="0" transform="matrix(.85378 .47206 -.51266 .88781 357.166 -734.778)"/><rect x="1452" y="283" width="5" height="6" fill="#95E1D3" rx="0" transform="matrix(-.6188 .71978 -.79175 -.69508 2604.534 -511.332)"/><rect x="733" y="144" width="9" height="18" fill="#ff75a0" rx="0" transform="matrix(-.52164 .76616 -.8675 -.64289 1278.251 -300.81)"/><rect x="354" y="834" width="7" height="18" fill="#EAFFD0" rx="0" transform="matrix(.46787 1.02497 -.92647 .10773 1085.698 474.894)"/><rect x="745" y="562" width="6" height="16" fill="#95E1D3" rx="0" transform="matrix(-.93586 .29237 -.35924 -.9563 1692.65 896.4)"/><rect x="309" y="345" width="6" height="8" fill="#FCE38A" rx="0" transform="matrix(-.65132 .47671 -.87275 -.89657 935.649 568.182)"/><rect x="963" y="854" width="8" height="9" fill="#ff75a0" rx="0" transform="matrix(-.0527 1.00324 -.98748 -.1769 1792.535 228.2)"/><rect x="1079" y="157" width="9" height="11" fill="#EAFFD0" rx="0" transform="matrix(-.38663 .93415 -.91429 -.37742 1654.079 -921.354)"/><rect x="1302" y="562" width="6" height="10" fill="#EAFFD0" rx="0" transform="matrix(.87992 .67587 -.43093 .80547 331.74 -347.686)"/><rect x="1475" y="257" width="6" height="11" fill="#95E1D3" rx="0" transform="matrix(.84399 .70332 -.54786 .7283 384.182 -1202.276)"/><rect x="79" y="225" width="6" height="14" fill="#ff75a0" rx="0" transform="matrix(.97086 -.08781 .29121 1.00368 6.938 -3.72)"/><rect x="1239" y="658" width="6" height="8" fill="#ff75a0" rx="0" transform="matrix(-.81247 .7718 -.61393 -.64761 2603.963 -20.35)"/><rect x="598" y="988" width="5" height="8" fill="#95E1D3" rx="0" transform="matrix(-.5595 .76477 -.78584 -.71316 1529.838 1423.801)"/><rect x="1424" y="953" width="7" height="13" fill="#EAFFD0" rx="0" transform="matrix(.77026 .5592 -.64633 .82904 847.253 -634.21)"/><rect x="17" y="35" width="9" height="20" fill="#95E1D3" rx="0" transform="matrix(-.1329 .79355 -1.14464 -.68982 92.757 65.966)"/><rect x="1276" y="772" width="7" height="11" fill="#95E1D3" rx="0" transform="matrix(1.00027 .40698 -.21046 .9141 346.004 -498.632)"/><rect x="1268" y="260" width="9" height="15" fill="#FCE38A" rx="0" transform="matrix(-.22968 .877 -.9911 -.56952 1864.293 -307.08)"/><rect x="898" y="873" width="5" height="9" fill="#ff75a0" rx="0" transform="matrix(.96215 .1397 -.31192 .99405 237.917 -199.367)"/><rect x="967" y="350" width="8" height="12" fill="#95E1D3" rx="0" transform="matrix(-.04587 1.00861 -.98745 -.08824 1406.374 -745.74)"/><rect x="601" y="466" width="7" height="19" fill="#95E1D3" rx="0" transform="matrix(.64057 .89318 -.7932 .4551 667.215 -238.558)"/><rect x="875" y="653" width="6" height="7" fill="#95E1D3" rx="0" transform="matrix(.1908 .98496 -.98163 .17367 1354.908 -306.985)"/><rect x="602" y="872" width="7" height="11" fill="#95E1D3" rx="0" transform="matrix(.86752 .37466 -.52188 .92733 381.578 -152.518)"/><rect x="189" y="45" width="9" height="19" fill="#EAFFD0" rx="0" transform="matrix(.85673 .83082 -.55804 .62607 65.826 -84.9)"/><rect x="107" y="395" width="9" height="26" fill="#FCE38A" rx="0" transform="matrix(.80283 .7771 -.56397 .6997 221.17 69.963)"/><rect x="1169" y="658" width="9" height="21" fill="#95E1D3" rx="0" transform="matrix(-.97518 .10583 -.17073 -1.00692 2357.262 1403.296)"/><rect x="119" y="453" width="9" height="16" fill="#95E1D3" rx="0" transform="matrix(.19315 1.00844 -1.00175 -.05285 611.73 378.178)"/><rect x="1438" y="430" width="9" height="26" fill="#ff75a0" rx="0" transform="matrix(-.29501 .82115 -1.01123 -.57498 2461.758 -385.928)"/><rect x="32" y="537" width="8" height="17" fill="#EAFFD0" rx="0" transform="matrix(-.14713 .95262 -.99908 -.32801 751.718 685.717)"/><rect x="157" y="104" width="5" height="13" fill="#FCE38A" rx="0" transform="matrix(.45985 .71802 -.93287 .71802 176.189 -111.488)"/><rect x="911" y="207" width="8" height="22" fill="#EAFFD0" rx="0" transform="matrix(-.70168 .56616 -.72599 -.83937 1734.325 27.865)"/><rect x="1050" y="817" width="8" height="8" fill="#FCE38A" rx="0" transform="matrix(1.0894 .4258 -.01233 .91311 224.697 -248.036)"/><rect x="1227" y="413" width="6" height="11" fill="#ff75a0" rx="0" transform="matrix(-.9397 .4574 -.34202 -.8977 2528.957 80.56)"/><rect x="690" y="117" width="6" height="10" fill="#FCE38A" rx="0" transform="matrix(1.02095 .56966 -.24181 .84455 60.246 -241.104)"/><rect x="265" y="179" width="6" height="10" fill="#ff75a0" rx="0" transform="matrix(-.26163 .8336 -1.02314 -.56227 579.274 92.22)"/><rect x="477" y="233" width="6" height="11" fill="#FCE38A" rx="0" transform="matrix(.61566 .95298 -.78801 .40451 372.423 -186.79)"/><rect x="405" y="314" width="8" height="11" fill="#EAFFD0" rx="0" transform="matrix(.19293 1.01624 -.99752 -.07106 676.698 6.066)"/><rect x="1161" y="511" width="9" height="12" fill="#ff75a0" rx="0" transform="matrix(.9298 .3473 -.32478 .95419 135.292 -175.58)"/><rect x="184" y="828" width="6" height="15" fill="#95E1D3" rx="0" transform="matrix(-.80395 .6625 -.58458 -.76213 868.165 1322.087)"/><rect x="195" y="23" width="6" height="11" fill="#FCE38A" rx="0" transform="matrix(.05134 1.01484 -.98987 -.08879 212.535 -131.42)"/><rect x="904" y="625" width="8" height="11" fill="#95E1D3" rx="0" transform="matrix(-.96007 .39169 -.29128 -.92275 1841.03 920.139)"/><rect x="438" y="454" width="6" height="17" fill="#EAFFD0" rx="0" transform="matrix(1.00516 .55483 -.25453 .85437 192.493 -91.605)"/><rect x="395" y="34" width="8" height="8" fill="#ff75a0" rx="0" transform="matrix(-.531 .78143 -.84972 -.63279 644.553 -207.807)"/><rect x="134" y="115" width="8" height="13" fill="#FCE38A" rx="0" transform="matrix(-.95932 .12254 -.3475 -.99801 329.306 240.352)"/><rect x="1405" y="67" width="9" height="18" fill="#ff75a0" rx="0" transform="matrix(.25308 1.0043 -.96912 .10556 1091.431 -1545.67)"/><rect x="983" y="25" width="5" height="6" fill="#95E1D3" rx="0" transform="matrix(.94427 .4098 -.3194 .9204 44.095 -522.625)"/><rect x="1413" y="393" width="6" height="16" fill="#ff75a0" rx="0" transform="matrix(-.61353 .81697 -.77829 -.59356 2491.047 -318.802)"/><rect x="1448" y="115" width="9" height="21" fill="#EAFFD0" rx="0" transform="matrix(.98178 .20791 -.19084 .97815 52.61 -299.25)"/><rect x="712" y="154" width="7" height="9" fill="#ff75a0" rx="0" transform="matrix(-.96644 .24285 -.24165 -.974 1453.68 76.525)"/><rect x="882" y="590" width="8" height="17" fill="#EAFFD0" rx="0" transform="matrix(.9991 -.01752 -.15757 1.00367 49.523 -64.188)"/><rect x="1146" y="948" width="5" height="6" fill="#EAFFD0" rx="0" transform="matrix(-.53755 .63279 -.91649 -.78143 2924.624 1088.093)"/><rect x="1433" y="483" width="7" height="15" fill="#95E1D3" rx="0" transform="matrix(-.9069 .37483 -.42319 -.92775 2985.358 356.947)"/><rect x="622" y="76" width="6" height="8" fill="#FCE38A" rx="0" transform="matrix(.78477 .84465 -.59255 .6365 166.451 -283.623)"/><rect x="1411" y="703" width="7" height="19" fill="#EAFFD0" rx="0" transform="matrix(.96735 .7264 -.37493 .7522 433.655 -418.483)"/><rect x="992" y="927" width="8" height="22" fill="#FCE38A" rx="0" transform="rotate(92.005 995.997 874.662) skewX(4)"/><rect x="1383" y="658" width="8" height="12" fill="#EAFFD0" rx="0" transform="matrix(.64441 .89658 -.7433 .51764 914.335 -551.616)"/><rect x="1302" y="557" width="9" height="14" fill="#ff75a0" rx="0" transform="matrix(-.2729 .887 -.95018 -.57602 2163.536 179.88)"/><rect x="716" y="204" width="6" height="15" fill="#ff75a0" rx="0" transform="matrix(1.11433 .82856 -.3363 .64734 142.186 -287.533)"/><rect x="567" y="543" width="7" height="17" fill="#EAFFD0" rx="0" transform="matrix(-.54296 .6491 -.89351 -.77357 1495.815 687.99)"/><rect x="924" y="792" width="5" height="13" fill="#FCE38A" rx="0" transform="matrix(.06125 .92955 -1.10179 -.39457 2069.31 382.547)"/><rect x="99" y="601" width="8" height="18" fill="#95E1D3" rx="0" transform="matrix(1.01542 .5153 -.18183 .89254 176.14 38.156)"/><rect x="262" y="591" width="8" height="12" fill="#EAFFD0" rx="0" transform="matrix(-.48368 .59381 -.99328 -.84805 1166.709 1016.606)"/><rect x="408" y="152" width="7" height="8" fill="#95E1D3" rx="0" transform="matrix(.99653 .47062 -.25067 .8851 73.114 -146.96)"/><rect x="1186" y="709" width="7" height="10" fill="#EAFFD0" rx="0" transform="matrix(-.26524 .97106 -.94871 -.29688 2280.399 -438.84)"/><rect x="1195" y="679" width="7" height="12" fill="#EAFFD0" rx="0" transform="matrix(-.1893 .96441 -.968 -.35102 2021.217 46.296)"/><rect x="1058" y="157" width="5" height="9" fill="#FCE38A" rx="0" transform="matrix(.81454 .68673 -.55154 .7627 250.205 -445.118)"/><rect x="1357" y="985" width="5" height="11" fill="#ff75a0" rx="0" transform="matrix(1.00751 .37667 -.16117 .9323 288.587 -302.128)"/><rect x="492" y="935" width="6" height="15" fill="#95E1D3" rx="0" transform="matrix(-.98258 .12204 -.1918 -.9939 1274.681 1792.909)"/><rect x="784" y="344" width="9" height="16" fill="#ff75a0" rx="0" transform="matrix(.74677 .57436 -.67456 .82028 367.76 -348.3)"/><rect x="266" y="346" width="9" height="17" fill="#FCE38A" rx="0" transform="matrix(1.0068 .15646 -.03482 .98784 59.662 -42.732)"/><rect x="66" y="345" width="8" height="17" fill="#EAFFD0" rx="0" transform="matrix(1.02885 .27669 -.02611 .96493 126.823 -13.097)"/><rect x="1247" y="987" width="6" height="8" fill="#EAFFD0" rx="0" transform="matrix(.9506 .29255 -.30897 .95689 313.72 -279.312)"/><rect x="802" y="209" width="6" height="11" fill="#EAFFD0" rx="0" transform="matrix(-.5012 .78597 -.82105 -.70769 1315.472 10.78)"/><rect x="517" y="342" width="7" height="8" fill="#EAFFD0" rx="0" transform="matrix(.98946 .83378 -.48047 .60578 299.214 -167.809)"/><rect x="963" y="739" width="7" height="20" fill="#EAFFD0" rx="0" transform="matrix(-.83102 .4098 -.57377 -.9204 2392.143 923.65)"/><rect x="351" y="232" width="5" height="6" fill="#95E1D3" rx="0" transform="matrix(.92726 .69994 -.43433 .7506 155.48 -107.205)"/><rect x="1463" y="32" width="5" height="6" fill="#FCE38A" rx="0" transform="matrix(-.8976 .4232 -.43807 -.90755 2793.329 -630.236)"/><rect x="569" y="283" width="6" height="14" fill="#EAFFD0" rx="0" transform="matrix(.10663 .9636 -1.00719 .27631 776.815 -381.313)"/><rect x="475" y="387" width="6" height="11" fill="#ff75a0" rx="0" transform="matrix(.99039 .1573 -.10438 .99313 22.363 -22.25)"/><rect x="449" y="526" width="8" height="10" fill="#EAFFD0" rx="0" transform="matrix(-.92812 .27907 -.34656 -.97324 1163.487 849.624)"/><rect x="921" y="303" width="9" height="24" fill="#FCE38A" rx="0" transform="matrix(-.19396 1.0043 -1.0161 .10556 1395.798 -777.796)"/><rect x="711" y="980" width="7" height="11" fill="#ff75a0" rx="0" transform="matrix(-.6171 .82954 -.78924 -.55953 1827.016 969.163)"/><rect x="1364" y="325" width="6" height="17" fill="#FCE38A" rx="0" transform="matrix(.63623 .81964 -.74061 .61765 641.467 -677.34)"/><rect x="866" y="710" width="8" height="16" fill="#EAFFD0" rx="0" transform="matrix(.03508 .97044 -1.0392 -.24196 1782.086 62.626)"/><rect x="627" y="455" width="5" height="5" fill="#ff75a0" rx="0" transform="matrix(.94449 .2255 -.34356 .97675 170.455 -175.334)"/><rect x="1297" y="255" width="5" height="8" fill="#95E1D3" rx="0" transform="matrix(.69569 1.02451 -.81546 .23653 726.778 -711.383)"/><rect x="1076" y="927" width="9" height="10" fill="#ff75a0" rx="0" transform="matrix(.81028 .63716 -.56884 .78683 638.638 -318.65)"/><rect x="1343" y="269" width="8" height="22" fill="#EAFFD0" rx="0" transform="matrix(.52264 .9974 -.91983 .15797 1008.908 -918.415)"/><rect x="462" y="496" width="6" height="9" fill="#95E1D3" rx="0" transform="matrix(.48765 .92065 -.8792 .3908 738.74 -131.307)"/><rect x="1482" y="587" width="9" height="9" fill="#ff75a0" rx="0" transform="matrix(.84799 .58073 -.51093 .82936 455.835 -526.88)"/><rect x="1105" y="602" width="8" height="16" fill="#EAFFD0" rx="0" transform="matrix(-.79914 .56782 -.57635 -.84183 2233.608 689.35)"/><rect x="135" y="946" width="8" height="18" fill="#ff75a0" rx="0" transform="matrix(-.58038 .69988 -.82782 -.72474 1078.22 1566.913)"/><rect x="1227" y="938" width="6" height="8" fill="#ff75a0" rx="0" transform="matrix(.87952 .44513 -.44323 .91266 680.565 -682.122)"/><rect x="114" y="559" width="8" height="10" fill="#ff75a0" rx="0" transform="matrix(-.68129 .53513 -.77843 -.85638 729.38 1000.438)"/><rect x="371" y="298" width="6" height="7" fill="#95E1D3" rx="0" transform="matrix(.13786 1.0249 -.98293 -.05371 605.251 20.727)"/><rect x="761" y="683" width="8" height="10" fill="#ff75a0" rx="0" transform="matrix(.96237 .84756 -.53073 .57169 637.834 -191.096)"/><rect x="622" y="164" width="8" height="22" fill="#FCE38A" rx="0" transform="matrix(1.03831 .53024 -.22428 .84857 79.23 -283.57)"/><rect x="460" y="212" width="8" height="16" fill="#ff75a0" rx="0" transform="matrix(-.22794 .99589 -.98017 -.10467 742.321 -194.746)"/><rect x="355" y="137" width="9" height="15" fill="#95E1D3" rx="0" transform="matrix(.93811 .70357 -.37945 .78139 86.203 -104.534)"/><rect x="1211" y="484" width="9" height="16" fill="#FCE38A" rx="0" transform="matrix(1.06127 .41084 .06614 .96788 33.468 -88.63)"/><rect x="1192" y="380" width="5" height="6" fill="#EAFFD0" rx="0" transform="matrix(.51852 .92275 -.86362 .39169 938.521 -785.716)"/><rect x="395" y="252" width="8" height="13" fill="#95E1D3" rx="0" transform="matrix(-.978 .2777 -.19025 -.96848 845.715 349.056)"/><rect x="440" y="248" width="7" height="17" fill="#EAFFD0" rx="0" transform="matrix(.99891 .40898 -.20154 .91858 120.374 -207.11)"/><rect x="115" y="780" width="6" height="13" fill="#ff75a0" rx="0" transform="matrix(.8403 .5967 -.47583 .85216 248.435 79.7)"/><rect x="306" y="153" width="6" height="10" fill="#95E1D3" rx="0" transform="matrix(.2138 1.04426 -.94641 .05473 361.469 -78.852)"/><rect x="179" y="881" width="6" height="14" fill="#95E1D3" rx="0" transform="matrix(1.03834 .71018 -.33287 .73541 536.912 144.389)"/><rect x="143" y="645" width="8" height="11" fill="#FCE38A" rx="0" transform="matrix(.39073 .8516 -.9205 .55304 688.35 139.64)"/><rect x="355" y="428" width="6" height="10" fill="#FCE38A" rx="0" transform="matrix(1.02382 .44513 -.14737 .91266 125.01 -58.414)"/><rect x="1388" y="629" width="6" height="12" fill="#95E1D3" rx="0" transform="matrix(-.5592 .84857 -.82904 -.53024 2695.276 -257.225)"/><rect x="243" y="844" width="9" height="18" fill="#95E1D3" rx="0" transform="matrix(-.6427 .62942 -.7951 -.77726 1280.727 1355.906)"/><rect x="1435" y="692" width="6" height="10" fill="#EAFFD0" rx="0" transform="matrix(-.31582 .8407 -.96835 -.58866 2639.04 230.362)"/><rect x="1082" y="183" width="6" height="6" fill="#95E1D3" rx="0" transform="matrix(-.98873 .01758 -.2273 -1.00736 2227.979 487.511)"/><rect x="416" y="298" width="5" height="5" fill="#EAFFD0" rx="0" transform="matrix(.96593 .29255 -.25882 .95689 92.035 -94.863)"/><rect x="1262" y="502" width="8" height="20" fill="#EAFFD0" rx="0" transform="matrix(.75757 .8717 -.6362 .58797 600.403 -481.267)"/><rect x="519" y="409" width="9" height="10" fill="#FCE38A" rx="0" transform="matrix(.63305 .84072 -.77835 .54597 580.88 -288.754)"/><rect x="1040" y="922" width="8" height="19" fill="#FCE38A" rx="0" transform="matrix(-.85875 .48957 -.49337 -.88322 2267.717 1389.824)"/><rect x="1447" y="447" width="6" height="14" fill="#EAFFD0" rx="0" transform="matrix(-.23364 .9204 -.98245 -.4098 2319.184 -872.581)"/><rect x="1224" y="602" width="8" height="13" fill="#ff75a0" rx="0" transform="matrix(-.38994 .93586 -.91885 -.35924 2284.216 -408.007)"/><rect x="601" y="554" width="8" height="20" fill="#FCE38A" rx="0" transform="matrix(.25014 1.01367 -.9469 .16055 901.312 -.144)"/><rect x="1191" y="678" width="6" height="15" fill="#FCE38A" rx="0" transform="matrix(-.82909 .43864 -.5799 -.89934 2670.74 819.96)"/><rect x="427" y="617" width="8" height="11" fill="#95E1D3" rx="0" transform="matrix(1.0139 .17389 -.00078 .98616 73.705 -43.741)"/><rect x="448" y="744" width="5" height="11" fill="#FCE38A" rx="0" transform="matrix(-.98705 .10454 -.17418 -.99467 1090.597 1440.047)"/><rect x="1050" y="927" width="7" height="8" fill="#FCE38A" rx="0" transform="matrix(.631 .70808 -.78128 .70808 959.915 -418.968)"/><rect x="449" y="829" width="8" height="9" fill="#95E1D3" rx="0" transform="matrix(.87676 .54464 -.486 .83867 519.19 -112.253)"/><rect x="242" y="256" width="5" height="8" fill="#FCE38A" rx="0" transform="matrix(.12187 .97758 -.99255 .24374 472.765 -72.412)"/><rect x="191" y="668" width="5" height="10" fill="#ff75a0" rx="0" transform="matrix(1.05804 .4851 -.15265 .87515 325.562 -3.089)"/><rect x="466" y="741" width="8" height="22" fill="#95E1D3" rx="0" transform="matrix(.1401 .9614 -.99997 .27568 1035.725 101.031)"/><rect x="522" y="746" width="6" height="17" fill="#95E1D3" rx="0" transform="matrix(-.70521 .72209 -.70386 -.69731 1342.168 947.457)"/><rect x="629" y="284" width="7" height="20" fill="#95E1D3" rx="0" transform="matrix(.92251 .6792 -.41109 .78133 186.055 -195.83)"/><rect x="923" y="285" width="9" height="25" fill="#ff75a0" rx="0" transform="matrix(-.77508 .84691 -.67741 -.55 1824.43 -454.74)"/><rect x="125" y="148" width="5" height="11" fill="#EAFFD0" rx="0" transform="matrix(.7281 .76213 -.6792 .6625 132.938 -27.447)"/><rect x="1041" y="607" width="9" height="26" fill="#95E1D3" rx="0" transform="matrix(.78601 .9742 -.78617 .29784 978.636 -379.969)"/><rect x="952" y="472" width="8" height="14" fill="#ff75a0" rx="0" transform="matrix(-.59159 .92764 -.81461 -.41301 1900.917 -378.559)"/><rect x="737" y="831" width="7" height="19" fill="#ff75a0" rx="0" transform="matrix(.76064 .48666 -.68258 .87796 641.936 -322.584)"/><rect x="956" y="441" width="5" height="11" fill="#95E1D3" rx="0" transform="matrix(.9994 0 .10573 1.00061 11.424 -33.744)"/><rect x="1005" y="100" width="5" height="14" fill="#ff75a0" rx="0" transform="matrix(.95198 .46363 -.20503 .95058 30.603 -114.91)"/><rect x="1064" y="843" width="7" height="10" fill="#ff75a0" rx="0" transform="matrix(.60874 1.01624 -.94146 .07106 1579.467 -89.59)"/><rect x="1114" y="132" width="6" height="10" fill="#ff75a0" rx="0" transform="matrix(.19574 .99497 -1.02909 -.12217 1092.979 -879.536)"/><rect x="710" y="176" width="5" height="14" fill="#ff75a0" rx="0" transform="matrix(.56281 .75575 -.83395 .65696 453.922 -513.033)"/><rect x="858" y="397" width="5" height="11" fill="#EAFFD0" rx="0" transform="matrix(.96386 .12278 -.29433 1 134.008 -211.312)"/><rect x="856" y="853" width="6" height="10" fill="#95E1D3" rx="0" transform="matrix(.81618 .45572 -.59246 .89441 611.492 -376.024)"/><rect x="1080" y="517" width="7" height="15" fill="#EAFFD0" rx="0" transform="matrix(.974 .33705 -.1382 .97887 43.687 -63.793)"/><rect x="1450" y="660" width="8" height="13" fill="#EAFFD0" rx="0" transform="matrix(.74136 .95157 -.75136 .38446 1053.55 -637.647)"/><rect x="789" y="420" width="8" height="9" fill="#ff75a0" rx="0" transform="matrix(.99466 .4258 -.2155 .91311 208.359 -398.138)"/><rect x="769" y="689" width="5" height="10" fill="#EAFFD0" rx="0" transform="matrix(-.24132 1.0023 -.96807 -.12307 1639.746 -102.294)"/><rect x="493" y="349" width="5" height="6" fill="#ff75a0" rx="0" transform="matrix(.01745 1.00452 -.99985 -.25046 838.799 75.188)"/><rect x="30" y="520" width="7" height="20" fill="#95E1D3" rx="0" transform="matrix(.76594 .61604 -.64292 .7885 311.447 92.632)"/><rect x="633" y="513" width="9" height="24" fill="#ff75a0" rx="0" transform="matrix(.8893 .50623 -.43508 .87682 244.229 -157.084)"/><rect x="622" y="421" width="7" height="15" fill="#EAFFD0" rx="0" transform="matrix(.68026 .84183 -.72905 .56782 615.785 -451.666)"/><rect x="471" y="147" width="8" height="16" fill="#95E1D3" rx="0" transform="matrix(-.53328 .76897 -.85297 -.64524 870.817 -68.691)"/><rect x="1169" y="863" width="5" height="14" fill="#ff75a0" rx="0" transform="matrix(-.52548 .87253 -.8427 -.50375 2583.785 142.257)"/><rect x="1041" y="399" width="9" height="24" fill="#ff75a0" rx="0" transform="matrix(1.11315 .64734 -.12 .82856 132.177 -266.635)"/><rect x="602" y="45" width="6" height="7" fill="#EAFFD0" rx="0" transform="matrix(1.03619 .34433 .1051 1 0 0)"/><rect x="759" y="419" width="8" height="22" fill="#ff75a0" rx="0" transform="matrix(.99147 .1746 -.10434 .99023 33.56 -48.829)"/><rect x="1448" y="78" width="5" height="6" fill="#ff75a0" rx="0" transform="matrix(.0521 .95689 -1.06098 -.29255 1503.656 -1232.616)"/><rect x="395" y="426" width="7" height="13" fill="#FCE38A" rx="0" transform="matrix(.01712 .9926 -1.0114 -.22916 855.834 213.519)"/><rect x="295" y="142" width="8" height="16" fill="#EAFFD0" rx="0" transform="matrix(-.69476 .73135 -.71945 -.682 612.034 33.625)"/><rect x="1089" y="195" width="5" height="5" fill="#EAFFD0" rx="0" transform="matrix(1.0399 .12278 .32492 1 0 0)"/><rect x="915" y="79" width="6" height="6" fill="#ff75a0" rx="0" transform="matrix(.98143 -.03544 .11385 1.0148 -12.204 -130.55)"/><rect x="893" y="624" width="5" height="14" fill="#FCE38A" rx="0" transform="matrix(-.886 .32601 -.49423 -.94682 2135.609 889.563)"/><rect x="517" y="629" width="7" height="15" fill="#95E1D3" rx="0" transform="matrix(-.5977 .79575 -.78969 -.62171 1247.109 691.18)"/><rect x="695" y="654" width="6" height="9" fill="#EAFFD0" rx="0" transform="matrix(-.33933 .92029 -.92838 -.42914 1477.815 421.802)"/><rect x="387" y="905" width="9" height="25" fill="#FCE38A" rx="0" transform="matrix(.92626 .37742 -.357 .93415 254.934 -39.27)"/><rect x="233" y="382" width="9" height="21" fill="#FCE38A" rx="0" transform="matrix(-.6249 .67587 -.73485 -.80547 608.335 625.296)"/><rect x="333" y="640" width="5" height="6" fill="#95E1D3" rx="0" transform="matrix(-.88376 .25298 -.4084 -1.01463 816.236 1313.107)"/><rect x="459" y="961" width="7" height="18" fill="#95E1D3" rx="0" transform="matrix(1.0885 .81714 -.34234 .6617 633.638 100.493)"/><rect x="1307" y="859" width="8" height="18" fill="#FCE38A" rx="0" transform="matrix(.47377 .93984 -.89158 .34207 1573.171 -638.16)"/><rect x="331" y="581" width="9" height="23" fill="#FCE38A" rx="0" transform="matrix(-.69864 .48666 -.79444 -.87796 1207.224 978.77)"/><rect x="241" y="302" width="6" height="14" fill="#ff75a0" rx="0" transform="matrix(-.77473 .50771 -.62775 -.87939 713.429 413.824)"/><rect x="941" y="286" width="7" height="12" fill="#FCE38A" rx="0" transform="matrix(1.00293 .01745 .15885 .99985 2.341 -16.44)"/><rect x="1360" y="496" width="5" height="7" fill="#FCE38A" rx="0" transform="matrix(1.0124 .15646 .00053 .98784 66.726 -230.882)"/><rect x="314" y="29" width="5" height="10" fill="#ff75a0" rx="0" transform="matrix(-.58779 .81928 -.80902 -.57366 530.04 -211.321)"/><rect x="1430" y="477" width="8" height="10" fill="#95E1D3" rx="0" transform="matrix(.93982 .88537 -.58686 .51117 609.723 -729.203)"/><rect x="1050" y="332" width="9" height="19" fill="#95E1D3" rx="0" transform="matrix(.29716 1.01185 -.97791 .03533 1128.551 -570.544)"/><rect x="1411" y="964" width="9" height="10" fill="#EAFFD0" rx="0" transform="matrix(.74314 .85442 -.66913 .57631 1011.966 -445.95)"/><rect x="477" y="698" width="6" height="7" fill="#EAFFD0" rx="0" transform="matrix(-.99 -.03516 .09039 -1.0069 757.705 1483.652)"/><rect x="1129" y="97" width="9" height="13" fill="#ff75a0" rx="0" transform="matrix(-.08316 .99023 -.9952 -.1746 1327.721 -1119.992)"/><rect x="141" y="963" width="7" height="9" fill="#ff75a0" rx="0" transform="matrix(.0346 1 -.99819 .0524 1037.062 779.868)"/><rect x="503" y="361" width="8" height="20" fill="#95E1D3" rx="0" transform="matrix(.4578 .93715 -.89134 .35974 669.074 -281.952)"/><rect x="652" y="329" width="8" height="17" fill="#95E1D3" rx="0" transform="matrix(-.10493 .99985 -.99832 -.01745 1032.238 -312.51)"/><rect x="1334" y="894" width="6" height="17" fill="#ff75a0" rx="0" transform="matrix(-.98705 .24196 -.1741 -.97044 2767.73 1431.489)"/><rect x="956" y="71" width="6" height="15" fill="#ff75a0" rx="0" transform="matrix(-.32475 .93715 -.9424 -.35974 1335.904 -708.083)"/><rect x="162" y="504" width="7" height="10" fill="#EAFFD0" rx="0" transform="matrix(-.86603 .6527 -.5 -.77786 563.327 767.727)"/><rect x="982" y="346" width="6" height="17" fill="#ff75a0" rx="0" transform="matrix(-.32372 .76897 -1.0288 -.64524 1811.762 -88.021)"/><rect x="1362" y="208" width="5" height="10" fill="#ff75a0" rx="0" transform="matrix(.83187 .47532 -.5393 .89395 344.063 -842.107)"/><rect x="865" y="699" width="7" height="17" fill="#95E1D3" rx="0" transform="matrix(.86857 .87253 -.64462 .50375 819.12 -300.06)"/><rect x="1152" y="158" width="8" height="8" fill="#EAFFD0" rx="0" transform="matrix(.85117 1.0345 -.78572 .2199 481.303 -671.472)"/><rect x="1467" y="438" width="9" height="22" fill="#95E1D3" rx="0" transform="matrix(-.54285 .76635 -.833 -.66618 2702.262 -639.038)"/><rect x="1154" y="822" width="7" height="10" fill="#ff75a0" rx="0" transform="matrix(-.98245 .20947 -.1518 -.9855 2249.346 1541.661)"/><rect x="259" y="341" width="7" height="12" fill="#FCE38A" rx="0" transform="matrix(1.00098 .12217 -.03322 .99497 63.324 -48.68)"/><rect x="58" y="846" width="5" height="5" fill="#ff75a0" rx="0" transform="matrix(.97081 .59381 -.29758 .84805 299.576 109.216)"/><rect x="903" y="83" width="7" height="17" fill="#95E1D3" rx="0" transform="matrix(-.6427 .63086 -.79149 -.77904 1583.29 -345.7)"/><rect x="1044" y="954" width="9" height="10" fill="#EAFFD0" rx="0" transform="matrix(-.76401 .7524 -.64115 -.67747 2478.267 653.729)"/><rect x="497" y="962" width="8" height="16" fill="#EAFFD0" rx="0" transform="matrix(1.02028 .32636 -.10095 .94783 373.608 -147.934)"/><rect x="415" y="967" width="8" height="18" fill="#EAFFD0" rx="0" transform="matrix(-.62588 .8253 -.77343 -.57788 1484.565 1142.766)"/><rect x="1465" y="914" width="6" height="15" fill="#FCE38A" rx="0" transform="matrix(.90784 .32681 -.4233 .94913 511.52 -561.317)"/><rect x="1135" y="612" width="8" height="13" fill="#FCE38A" rx="0" transform="matrix(-.63177 .82954 -.77935 -.55953 2259.79 59.497)"/><rect x="464" y="498" width="6" height="8" fill="#95E1D3" rx="0" transform="matrix(.67931 .8708 -.75618 .50275 587.284 -107.96)"/><rect x="1251" y="382" width="5" height="9" fill="#FCE38A" rx="0" transform="matrix(-.89364 .32562 -.47576 -.94566 2621.854 321.957)"/><rect x="1257" y="581" width="5" height="8" fill="#95E1D3" rx="0" transform="matrix(-.56458 .77456 -.80027 -.67332 2331.212 294.108)"/><rect x="1014" y="966" width="9" height="11" fill="#EAFFD0" rx="0" transform="matrix(-.08775 .98178 -1.0015 -.19084 2167.389 174.738)"/><rect x="1290" y="534" width="9" height="24" fill="#FCE38A" rx="0" transform="matrix(-.48316 .87944 -.86927 -.48748 2322.889 -190.21)"/><rect x="1285" y="115" width="6" height="6" fill="#ff75a0" rx="0" transform="matrix(.60887 .9582 -.84579 .31134 657.252 -994.751)"/><rect x="633" y="446" width="9" height="12" fill="#ff75a0" rx="0" transform="matrix(-1.01433 .35886 -.14418 -.93486 1275.496 612.374)"/><rect x="643" y="445" width="7" height="11" fill="#FCE38A" rx="0" transform="matrix(-.81915 .38446 -.57358 -.95157 1434.478 779.886)"/><rect x="1286" y="935" width="9" height="19" fill="#EAFFD0" rx="0" transform="matrix(1.0043 -.07014 -.10504 1.00306 37.106 -48.01)"/><rect x="15" y="547" width="5" height="14" fill="#FCE38A" rx="0" transform="matrix(-.66913 .81347 -.74314 -.59102 440.912 865.352)"/><rect x="374" y="753" width="9" height="22" fill="#FCE38A" rx="0" transform="matrix(-.77971 .70537 -.61027 -.73044 1188.625 988.33)"/><rect x="70" y="517" width="6" height="15" fill="#95E1D3" rx="0" transform="matrix(.5852 .67416 -.8334 .74873 413.215 73.617)"/><rect x="1098" y="433" width="9" height="10" fill="#EAFFD0" rx="0" transform="matrix(-.25698 .96256 -.9298 -.40858 1670.322 -107.2)"/><rect x="744" y="425" width="5" height="10" fill="#95E1D3" rx="0" transform="matrix(-.52363 .80463 -.84822 -.60633 1574.04 -1.593)"/><rect x="1263" y="723" width="7" height="19" fill="#EAFFD0" rx="0" transform="matrix(-.66518 .85769 -.76624 -.51535 2573.492 -20.496)"/><rect x="752" y="376" width="8" height="17" fill="#95E1D3" rx="0" transform="matrix(-1.03415 .3306 -.0215 -.9601 1510.78 370.43)"/><rect x="383" y="510" width="5" height="8" fill="#FCE38A" rx="0" transform="matrix(.37622 .97039 -.90097 .33413 608.058 57.17)"/><rect x="1111" y="252" width="6" height="10" fill="#EAFFD0" rx="0" transform="matrix(-.87461 .46954 -.48483 -.88308 2221.212 -58.564)"/><rect x="743" y="862" width="9" height="24" fill="#FCE38A" rx="0" transform="matrix(.03136 1.0345 -.9733 -.2199 1475.745 550.275)"/><rect x="1011" y="34" width="9" height="15" fill="#ff75a0" rx="0" transform="matrix(.68853 .6297 -.73779 .77762 346.287 -665.698)"/><rect x="1213" y="619" width="8" height="19" fill="#EAFFD0" rx="0" transform="matrix(.91133 .8191 -.55873 .59511 663.832 -549.62)"/><rect x="540" y="339" width="5" height="10" fill="#EAFFD0" rx="0" transform="matrix(-.8905 .21629 -.43394 -1.01757 1157.426 732.265)"/><rect x="822" y="285" width="5" height="5" fill="#95E1D3" rx="0" transform="matrix(-.03269 .97949 -1.014 -.2082 1199.371 -503.443)"/><rect x="737" y="143" width="9" height="10" fill="#EAFFD0" rx="0" transform="matrix(1.00518 .54464 -.28823 .83867 84.063 -379.973)"/><rect x="723" y="747" width="6" height="7" fill="#EAFFD0" rx="0" transform="matrix(-.87694 .22716 -.6037 -.98395 2028.292 1426.064)"/><rect x="592" y="51" width="5" height="5" fill="#FCE38A" rx="0" transform="matrix(-.95447 -.05535 -.14596 -1.05617 1138.035 347.614)"/><rect x="403" y="768" width="5" height="13" fill="#EAFFD0" rx="0" transform="matrix(.51279 .86933 -.85425 .50191 802.542 68.733)"/><rect x="949" y="275" width="8" height="8" fill="#95E1D3" rx="0" transform="matrix(.25477 .99878 -1.01457 -.05234 1078.52 -674.87)"/><rect x="582" y="381" width="7" height="11" fill="#ff75a0" rx="0" transform="matrix(.9375 .8768 -.50814 .59141 326.133 -153.848)"/><rect x="695" y="223" width="8" height="23" fill="#ff75a0" rx="0" transform="matrix(-.52902 .83106 -.84645 -.56056 1257.383 -166.083)"/><rect x="1167" y="82" width="9" height="21" fill="#ff75a0" rx="0" transform="matrix(.5 .98146 -.86603 .30006 665.857 -814.573)"/><rect x="1081" y="403" width="5" height="12" fill="#95E1D3" rx="0" transform="matrix(1.02686 .32601 -.08514 .94682 113.405 -388.269)"/><rect x="478" y="965" width="8" height="12" fill="#EAFFD0" rx="0" transform="matrix(-.79976 .21741 -.837 -1.02284 2065.296 2006.748)"/><rect x="638" y="352" width="5" height="12" fill="#95E1D3" rx="0" transform="matrix(-.9138 .4258 -.3889 -.91311 1389.46 333.531)"/><rect x="1163" y="393" width="9" height="22" fill="#ff75a0" rx="0" transform="matrix(.20789 .9783 -.978 .20794 1326.601 -842.55)"/><rect x="1008" y="165" width="8" height="16" fill="#EAFFD0" rx="0" transform="matrix(.9914 -.08824 .00077 1.00861 9.465 -72.474)"/><rect x="87" y="259" width="6" height="13" fill="#ff75a0" rx="0" transform="matrix(.80134 .89658 -.6527 .51764 221.611 71.49)"/><rect x="1265" y="100" width="9" height="22" fill="#95E1D3" rx="0" transform="matrix(.58594 .82366 -.8038 .57674 612.114 -1132.09)"/><rect x="29" y="618" width="5" height="10" fill="#ff75a0" rx="0" transform="matrix(.62462 .78683 -.7651 .63716 586.37 196.272)"/><rect x="679" y="421" width="7" height="12" fill="#ff75a0" rx="0" transform="matrix(.17621 1.01793 -1.0103 -.16122 1045.878 -28.725)"/><rect x="266" y="340" width="8" height="22" fill="#EAFFD0" rx="0" transform="matrix(.3844 .92955 -.91262 .39457 431.88 -.527)"/><rect x="1075" y="134" width="5" height="10" fill="#FCE38A" rx="0" transform="matrix(1.05767 .60932 -.23761 .8086 59.686 -459.274)"/><rect x="1196" y="401" width="7" height="7" fill="#ff75a0" rx="0" transform="matrix(-.38039 .97815 -.94149 -.20791 1965.28 -684.688)"/><rect x="930" y="870" width="8" height="21" fill="#ff75a0" rx="0" transform="matrix(.46658 .74264 -.91146 .69252 1225.513 -587.575)"/><rect x="1029" y="741" width="9" height="23" fill="#ff75a0" rx="0" transform="matrix(.05457 1.00844 -.98877 .05285 1806.49 -474.745)"/><rect x="17" y="291" width="9" height="23" fill="#ff75a0" rx="0" transform="matrix(.45465 1.0513 -.94327 .01835 335.063 281.332)"/><rect x="584" y="602" width="8" height="19" fill="#ff75a0" rx="0" transform="matrix(.99482 .08728 -.08718 .99756 22.696 -19.011)"/><rect x="1220" y="737" width="7" height="14" fill="#EAFFD0" rx="0" transform="matrix(-.40815 .94566 -.91692 -.32562 2354.527 -192.115)"/><rect x="548" y="37" width="5" height="9" fill="#ff75a0" rx="0" transform="matrix(.78085 .84805 -.63242 .59381 150.188 -302.488)"/><rect x="45" y="571" width="8" height="23" fill="#FCE38A" rx="0" transform="matrix(.43489 1.01674 -1.02924 -.10686 819.875 605.343)"/><rect x="271" y="186" width="6" height="9" fill="#EAFFD0" rx="0" transform="matrix(-.574 .7264 -.78226 -.7522 546.62 218.533)"/><rect x="938" y="144" width="8" height="19" fill="#ff75a0" rx="0" transform="matrix(1.0176 .17431 .03423 .98857 7.136 -80.033)"/><rect x="1121" y="843" width="7" height="13" fill="#EAFFD0" rx="0" transform="matrix(.65608 .76616 -.7547 .64289 1056.837 -577.808)"/><rect x="1013" y="924" width="6" height="11" fill="#95E1D3" rx="0" transform="matrix(-.75482 .32147 -.78761 -.98938 2796.833 1813.852)"/><rect x="629" y="238" width="9" height="16" fill="#ff75a0" rx="0" transform="matrix(.17544 1 -.99694 .01746 803.732 -380.736)"/><rect x="479" y="124" width="8" height="9" fill="#95E1D3" rx="0" transform="matrix(1.0036 .07014 .09512 1.00306 6.866 -85.036)"/><rect x="808" y="713" width="5" height="13" fill="#95E1D3" rx="0" transform="matrix(.96512 .31205 -.23423 .9604 325.52 -338.338)"/><rect x="915" y="390" width="8" height="17" fill="#ff75a0" rx="0" transform="matrix(.20753 .99801 -.9765 .12254 1108.776 -470.916)"/><rect x="1161" y="322" width="9" height="19" fill="#95E1D3" rx="0" transform="matrix(-.0002 1.00229 -.99771 -.0175 1474.82 -749.369)"/><rect x="50" y="209" width="7" height="20" fill="#ff75a0" rx="0" transform="matrix(-.67604 .5332 -.75033 -.8874 262.138 399.15)"/><rect x="1265" y="91" width="8" height="11" fill="#ff75a0" rx="0" transform="matrix(-.53513 .9601 -.8573 -.3306 2037.474 -1313.73)"/><rect x="691" y="257" width="5" height="10" fill="#95E1D3" rx="0" transform="matrix(-.35308 .76897 -1.00417 -.64524 1293.978 -41.554)"/><rect x="728" y="603" width="9" height="19" fill="#EAFFD0" rx="0" transform="matrix(.32384 .9363 -.9372 .37829 1113.904 -407.984)"/><rect x="953" y="151" width="6" height="9" fill="#ff75a0" rx="0" transform="matrix(-.86574 .6297 -.51894 -.77762 1831.041 -292.193)"/><rect x="1172" y="986" width="6" height="17" fill="#EAFFD0" rx="0" transform="matrix(.98734 -.03498 .31006 1.00183 20.66 -42.878)"/><rect x="549" y="647" width="8" height="9" fill="#95E1D3" rx="0" transform="matrix(.95063 .17375 -.36398 .9854 164.31 -105.89)"/><rect x="622" y="664" width="7" height="18" fill="#ff75a0" rx="0" transform="matrix(.82462 .66954 -.57773 .7436 559.303 -224.395)"/><rect x="813" y="684" width="6" height="17" fill="#FCE38A" rx="0" transform="matrix(.65295 .92945 -.8121 .37552 1018.62 -268.918)"/><rect x="426" y="314" width="9" height="24" fill="#EAFFD0" rx="0" transform="matrix(.77954 .90211 -.71132 .45965 410.585 -144.02)"/><rect x="780" y="670" width="8" height="19" fill="#95E1D3" rx="0" transform="matrix(1.02235 .2989 -.00162 .97767 57.61 -52.522)"/><rect x="1148" y="898" width="7" height="10" fill="#FCE38A" rx="0" transform="matrix(-.98945 -.03533 -.03334 -1.01185 2226.008 2039.766)"/><rect x="1207" y="344" width="8" height="11" fill="#95E1D3" rx="0" transform="matrix(-.16316 .93415 -1.00458 -.37742 1828.826 -798.536)"/><rect x="1483" y="587" width="9" height="26" fill="#EAFFD0" rx="0" transform="matrix(-.588 .74833 -.7685 -.72265 2660.65 346.986)"/><rect x="65" y="967" width="5" height="5" fill="#FCE38A" rx="0" transform="matrix(-.50652 .6411 -.93432 -.7917 1216.38 1706.891)"/><rect x="798" y="182" width="7" height="16" fill="#EAFFD0" rx="0" transform="matrix(-.31063 .98857 -.9568 -.17431 1225.976 -639.341)"/><rect x="981" y="31" width="6" height="12" fill="#FCE38A" rx="0" transform="matrix(-.84306 .2443 -.71199 -.97983 1900.277 -28.845)"/><rect x="444" y="131" width="8" height="19" fill="#EAFFD0" rx="0" transform="matrix(-.12242 1.00229 -.99985 .0175 635.69 -342.31)"/><rect x="1178" y="959" width="6" height="7" fill="#FCE38A" rx="0" transform="matrix(.83386 .50375 -.5408 .87253 773.896 -617.252)"/><rect x="872" y="239" width="8" height="11" fill="#ff75a0" rx="0" transform="matrix(.82993 .63903 -.54 .78913 253.107 -353.77)"/><rect x="224" y="414" width="7" height="17" fill="#FCE38A" rx="0" transform="matrix(.5134 .85012 -.8555 .53121 433.789 20.569)"/><rect x="136" y="746" width="5" height="8" fill="#ff75a0" rx="0" transform="matrix(.08716 1.01955 -.9962 -.17977 873.575 780.734)"/><rect x="1483" y="646" width="9" height="13" fill="#95E1D3" rx="0" transform="matrix(.44565 1.00244 -.9742 .05254 1699.54 -742.776)"/><rect x="1194" y="979" width="8" height="14" fill="#95E1D3" rx="0" transform="matrix(.9799 .33705 -.12106 .97887 74.945 -61.955)"/><rect x="388" y="944" width="6" height="16" fill="#FCE38A" rx="0" transform="matrix(.77654 .65696 -.62885 .75575 669.065 -3.85)"/><rect x="619" y="551" width="5" height="11" fill="#FCE38A" rx="0" transform="matrix(-.6735 .63086 -.75343 -.77904 1577.815 554.5)"/><rect x="817" y="423" width="5" height="6" fill="#ff75a0" rx="0" transform="matrix(-.82157 .30269 -.61654 -.99004 1811.9 819.29)"/><rect x="1480" y="614" width="9" height="26" fill="#EAFFD0" rx="0" transform="matrix(-1.01405 .20804 -.0361 -.97874 2931.649 880)"/><rect x="1042" y="801" width="5" height="9" fill="#95E1D3" rx="0" transform="matrix(.3844 .92955 -.91262 .39457 1244.276 -336.448)"/><rect x="742" y="232" width="6" height="13" fill="#95E1D3" rx="0" transform="matrix(.82215 .59879 -.53845 .82416 207.044 -259.345)"/><rect x="219" y="821" width="5" height="9" fill="#95E1D3" rx="0" transform="matrix(.76155 .50491 -.6615 .87454 557.249 -39.398)"/><rect x="174" y="820" width="7" height="20" fill="#95E1D3" rx="0" transform="matrix(-.73538 .75471 -.68575 -.65606 789.97 1240.568)"/><rect x="1403" y="750" width="8" height="13" fill="#EAFFD0" rx="0" transform="matrix(-.83536 .65616 -.56305 -.75482 2898.529 428.868)"/><rect x="970" y="687" width="8" height="12" fill="#FCE38A" rx="0" transform="matrix(.28298 1.0252 -.93565 .14408 1246.516 -144.412)"/><rect x="919" y="659" width="6" height="16" fill="#EAFFD0" rx="0" transform="matrix(-.40576 .84187 -.92432 -.54672 2058.823 174.79)"/><rect x="1184" y="495" width="5" height="12" fill="#ff75a0" rx="0" transform="matrix(-.53078 .65152 -.8794 -.80456 2328.505 448.978)"/><rect x="594" y="127" width="5" height="5" fill="#EAFFD0" rx="0" transform="matrix(.06986 1.00122 -1 -.01748 689.94 -434.203)"/><rect x="544" y="638" width="5" height="13" fill="#ff75a0" rx="0" transform="matrix(-.73442 .45572 -.75292 -.89441 1605.733 1019.706)"/><rect x="1191" y="160" width="9" height="12" fill="#95E1D3" rx="0" transform="matrix(.51934 1.04746 -.90925 .09164 793.638 -713.01)"/><rect x="478" y="927" width="8" height="18" fill="#FCE38A" rx="0" transform="matrix(-.12116 .97949 -.99519 -.2082 1599.89 633.498)"/><rect x="270" y="989" width="6" height="17" fill="#FCE38A" rx="0" transform="matrix(-.43345 .90554 -.8929 -.44166 1400.362 1157.325)"/><rect x="1397" y="972" width="7" height="15" fill="#FCE38A" rx="0" transform="matrix(.81414 .60325 -.53713 .8303 556.702 -355.292)"/><rect x="560" y="123" width="8" height="22" fill="#EAFFD0" rx="0" transform="matrix(.99756 .41325 -.06976 .97354 10.721 -35.325)"/><rect x="1177" y="805" width="9" height="25" fill="#EAFFD0" rx="0" transform="matrix(-.9749 -.1256 .0219 -1.02293 2159.146 2096.724)"/><rect x="1238" y="226" width="7" height="12" fill="#ff75a0" rx="0" transform="matrix(.48805 .92656 -.85169 .43206 772.292 -754.667)"/><rect x="360" y="75" width="6" height="13" fill="#EAFFD0" rx="0" transform="matrix(.67216 .9205 -.80105 .39073 209.21 -284.488)"/><rect x="698" y="841" width="7" height="15" fill="#EAFFD0" rx="0" transform="matrix(.66666 .90645 -.79234 .42268 1145.936 -158.263)"/><rect x="1286" y="251" width="9" height="13" fill="#EAFFD0" rx="0" transform="matrix(.9681 .92839 -.56239 .49363 367.333 -648.383)"/><rect x="1298" y="528" width="9" height="9" fill="#FCE38A" rx="0" transform="matrix(-.82031 .43864 -.5979 -.89934 2792.853 394.589)"/><rect x="518" y="269" width="9" height="14" fill="#EAFFD0" rx="0" transform="matrix(.97758 .12187 -.24374 .99255 45.096 -61.62)"/><rect x="1331" y="774" width="9" height="19" fill="#EAFFD0" rx="0" transform="matrix(.38966 .92945 -.91847 .37552 1488.777 -658.611)"/><rect x="212" y="519" width="8" height="22" fill="#95E1D3" rx="0" transform="matrix(-.40497 .8158 -.90938 -.63738 775.183 749.474)"/><rect x="1154" y="931" width="7" height="16" fill="#FCE38A" rx="0" transform="matrix(-.03524 .99087 -1.00426 -.13926 2209.778 -36.75)"/><rect x="534" y="889" width="6" height="10" fill="#FCE38A" rx="0" transform="matrix(.94137 .56952 -.30626 .877 268.329 -31.687)"/></svg>
