<svg xmlns="http://www.w3.org/2000/svg" width="400" height="400" id="dna"><path fill="#FCD2B1" d="M144.999 173.481a5.078 5.078 0 0 1-.001-10.156h109.03c1.404 0 2.673.57 3.591 1.487a5.08 5.08 0 0 1-3.59 8.669"></path><path fill="#0E538C" d="M273.088 200.888a5.083 5.083 0 0 1-5.08 5.08l-136.704-.002a5.075 5.075 0 0 1-5.077-5.078 5.074 5.074 0 0 1 5.078-5.078H268.01a5.074 5.074 0 0 1 5.078 5.078z"></path><path fill="#FCD2B1" d="M259.106 233.371a5.077 5.077 0 0 1-5.079 5.08H145a5.078 5.078 0 0 1-5.079-5.08 5.08 5.08 0 0 1 5.078-5.078l109.03.001c1.403 0 2.672.569 3.591 1.488a5.054 5.054 0 0 1 1.486 3.589z"></path><path fill="#0E538C" d="M257.042 344.879a5.075 5.075 0 0 1-5.078 5.078H148.141a5.078 5.078 0 1 1-.002-10.158l103.826.001a5.074 5.074 0 0 1 5.077 5.079zm.002-287.982a5.08 5.08 0 0 1-5.077 5.078H148.139a5.083 5.083 0 0 1-5.08-5.08 5.08 5.08 0 0 1 5.078-5.078h103.827c1.403 0 2.673.569 3.592 1.488a5.07 5.07 0 0 1 1.488 3.592z"></path><path fill="#2A94F4" d="M199.998 103.12c-26.979-17.249-48.396-34.241-48.396-64.419-.002-6.184-5.013-11.198-11.198-11.198-6.186 0-11.196 5.015-11.198 11.198.002 37.217 23.68 59.564 49.971 77.494 6.816-4.331 13.87-8.63 20.821-13.075zm81.773 97.768c0-42.353-30.662-65.449-60.947-84.692-6.753 4.606-13.812 9.008-20.824 13.374 31.908 19.878 59.377 37.144 59.375 71.319 0 72.102-130.168 73.875-130.168 162.188 0 6.182 5.012 11.198 11.196 11.196 6.185 0 11.198-5.013 11.198-11.199 0-72.077 130.169-73.651 130.17-162.186z"></path><path fill="#FFBE55" d="M140.625 200.887c-.003-72.481 130.168-73.317 130.166-162.186.002-6.184-5.012-11.197-11.197-11.197-6.184-.001-11.197 5.013-11.196 11.196.001 71.83-130.168 74.06-130.169 162.186 0 42.352 30.662 65.449 60.947 84.692 6.682-4.557 13.835-9.024 20.822-13.372-31.906-19.878-59.374-37.143-59.373-71.319zm130.168 162.188c0-35.181-20.885-57.661-49.969-77.495-6.843 4.348-13.812 8.591-20.824 13.073 26.979 17.251 48.398 34.243 48.397 64.42 0 6.186 5.014 11.199 11.198 11.199 6.183-.001 11.198-5.015 11.198-11.197z"></path></svg>