<svg xmlns="http://www.w3.org/2000/svg" width="400" height="400" id="science-report"><path fill="#2A94F4" d="M306.51 80.059v273.773c0 9.213-7.467 16.689-16.691 16.689H52.691c-9.236 0-16.691-7.477-16.691-16.689V80.059c0-9.211 7.455-16.689 16.691-16.689h237.127c9.225-.001 16.692 7.478 16.692 16.689z"></path><path fill="#CCE9FF" d="M291.326 95.428v243.035c0 8.18-6.629 14.818-14.816 14.818H66c-8.197 0-14.814-6.639-14.814-14.818V95.428c0-8.18 6.617-14.816 14.814-14.816h210.51c8.187-.001 14.816 6.636 14.816 14.816z"></path><path fill="#D3D3D3" d="M215.721 53.531h-6.064V35.672a6.19 6.19 0 0 0-6.193-6.193H139.04a6.19 6.19 0 0 0-6.193 6.193v17.859h-6.066c-4.729 0-8.543 3.832-8.543 8.553v25.793h106.029V62.084c-.001-4.721-3.826-8.553-8.546-8.553zm-18.787-5.295h-51.355v-7.299a4.933 4.933 0 0 1 4.939-4.93h41.477a4.932 4.932 0 0 1 4.939 4.93v7.299z"></path><path fill="#F7F7F7" d="M180.021 163.467c0 3.91-3.18 7.092-7.102 7.092h-66.943a7.094 7.094 0 0 1-7.092-7.092c0-1.965.789-3.734 2.074-5.018a7.07 7.07 0 0 1 5.018-2.072h66.943c3.923 0 7.102 3.168 7.102 7.09zm63.604-27.233c0 3.91-3.182 7.092-7.102 7.092H105.977a7.094 7.094 0 0 1-7.092-7.092c0-1.955.789-3.734 2.074-5.02a7.087 7.087 0 0 1 5.018-2.082h130.547a7.104 7.104 0 0 1 7.101 7.102zm-63.604 94.334c0 3.908-3.18 7.092-7.102 7.092h-66.943a7.096 7.096 0 0 1-7.092-7.092 7.05 7.05 0 0 1 2.074-5.018 7.071 7.071 0 0 1 5.018-2.074h66.943c3.923.001 7.102 3.169 7.102 7.092zm63.604-27.234c0 3.91-3.182 7.092-7.102 7.092H105.977a7.094 7.094 0 0 1-7.092-7.092c0-1.955.789-3.734 2.074-5.018a7.08 7.08 0 0 1 5.018-2.084h130.547a7.103 7.103 0 0 1 7.101 7.102zM180.021 297.668c0 3.91-3.18 7.092-7.102 7.092h-66.943a7.094 7.094 0 0 1-7.092-7.092c0-1.967.789-3.734 2.074-5.018a7.071 7.071 0 0 1 5.018-2.074h66.943a7.093 7.093 0 0 1 7.102 7.092zm63.604-27.234c0 3.91-3.182 7.092-7.102 7.092H105.977a7.094 7.094 0 0 1-7.092-7.092c0-1.955.789-3.734 2.074-5.018a7.08 7.08 0 0 1 5.018-2.084h130.547a7.103 7.103 0 0 1 7.101 7.102z"></path><path fill="#FFBE55" d="M336.754 156.992V291.51c0 7.49 6.131 9.535 13.623 9.535S364 299 364 291.51V156.992h-27.246z"></path><path fill="#2A94F4" d="M364 153.586v-13.283c0-7.492-6.131-9.535-13.623-9.535s-13.623 2.043-13.623 9.535v13.283H364z"></path><path fill="#FFE3CA" d="m336.754 295.254 13.623 25.201L364 295.254z"></path><path fill="#0B4870" d="m344.586 309.219 5.791 11.236 5.789-11.236z"></path><path fill="#D3D3D3" d="M336.754 153.586H364v3.406h-27.246z"></path></svg>