<svg xmlns="http://www.w3.org/2000/svg" width="400" height="400" id="flasks"><path fill="#CCE9FF" d="M181.664 137.837V64.026H89.757v73.811C50.199 155.449 22.62 195.1 22.62 241.195c0 62.458 50.63 113.088 113.088 113.088 62.458 0 113.091-50.63 113.091-113.088.001-46.095-27.581-85.746-67.135-103.358z"></path><path fill="#FFBE55" d="M225.914 241.197c0 49.74-40.462 90.199-90.208 90.199-16.364 0-31.721-4.376-44.962-12.029-27.021-15.593-45.238-44.793-45.238-78.17 0-24.951 10.337-48.302 27.713-65.033h124.979c17.379 16.732 27.716 40.082 27.716 65.033z"></path><path fill="#F2F2F2" d="M372.938 305.107 299.495 177.9v-65.815h-69.797V177.9l-73.442 127.207c-12.619 21.855 3.152 49.176 28.393 49.176h159.9c25.235 0 41.01-27.32 28.389-49.176zM324.8 97.209c0 8.217-6.659 14.876-14.875 14.876h-90.661a14.826 14.826 0 0 1-10.518-4.357 14.837 14.837 0 0 1-4.356-10.519c0-8.217 6.659-14.875 14.875-14.875h90.661c4.104 0 7.827 1.662 10.519 4.353a14.853 14.853 0 0 1 4.355 10.522z"></path><path fill="#CCE9FF" d="M207.285 60.591c0 8.216-6.659 14.875-14.875 14.875H80.263a14.82 14.82 0 0 1-10.521-4.354 14.846 14.846 0 0 1-4.357-10.521c0-8.215 6.663-14.874 14.878-14.874h112.146c4.104 0 7.826 1.661 10.519 4.356a14.826 14.826 0 0 1 4.357 10.518z"></path><path fill="#2A94F4" d="M353.117 326.448c-1.067 1.853-3.6 4.948-8.566 4.948H184.647c-4.975 0-7.507-3.096-8.574-4.948-1.067-1.847-2.487-5.593 0-9.896l53.972-93.48h69.109l53.963 93.48c2.487 4.303 1.066 8.05 0 9.896z"></path></svg>