<svg xmlns="http://www.w3.org/2000/svg" width="400" height="400" id="scientific-calculator"><path fill="#2A94F4" d="m308.727 357.049-24.764 6.75a322.812 322.812 0 0 1-84.91 11.373 322.801 322.801 0 0 1-92.756-13.615l-15.023-4.508v-314.1c0-10.006 8.113-18.121 18.121-18.121h181.211c10.01 0 18.121 8.115 18.121 18.121v314.1z"></path><path fill="#CCE9FF" d="M115.434 55.031h169.131v72.484H115.434V55.031zm114.767 117.787c0-11.678-13.52-21.141-30.201-21.141-16.68 0-30.203 9.463-30.203 21.141 0 11.676 13.523 21.141 30.203 21.141 16.682 0 30.201-9.465 30.201-21.141zm-120.806-21.14h24.16v12.08h-24.16v-12.08zm18.121 24.16h24.162v12.082h-24.162v-12.082zm138.927-24.16h24.162v12.08h-24.162v-12.08zm-18.121 24.16h24.162v12.082h-24.162v-12.082z"></path><path fill="#0B4870" d="M72.938 242.283h18.336V48.99H72.938a329.029 329.029 0 0 0-8.457 134.623l8.457 58.67zm254.126 0h-18.338V48.99h18.338a329.063 329.063 0 0 1 8.457 134.623l-8.457 58.67zm-193.509-24.162h12.082c6.674 0 12.078 5.408 12.078 12.08 0 6.674-5.404 12.082-12.078 12.082h-12.082c-6.672 0-12.08-5.408-12.08-12.082 0-6.672 5.408-12.08 12.08-12.08zm60.404 0h12.08c6.676 0 12.08 5.408 12.08 12.08 0 6.674-5.404 12.082-12.08 12.082h-12.08c-6.672 0-12.08-5.408-12.08-12.082 0-6.672 5.408-12.08 12.08-12.08zm60.404 0h12.08c6.676 0 12.08 5.408 12.08 12.08 0 6.674-5.404 12.082-12.08 12.082h-12.08c-6.672 0-12.082-5.408-12.082-12.082 0-6.672 5.41-12.08 12.082-12.08z"></path><path fill="#CCE9FF" d="M133.555 266.443h12.082c6.674 0 12.078 5.41 12.078 12.082 0 6.67-5.404 12.082-12.078 12.082h-12.082c-6.672 0-12.08-5.412-12.08-12.082 0-6.671 5.408-12.082 12.08-12.082z"></path><path fill="#FFBE55" d="M193.959 266.443h12.08c6.676 0 12.08 5.41 12.08 12.082 0 6.67-5.404 12.082-12.08 12.082h-12.08c-6.672 0-12.08-5.412-12.08-12.082 0-6.671 5.408-12.082 12.08-12.082zm60.404 0h12.08c6.676 0 12.08 5.41 12.08 12.082 0 6.67-5.404 12.082-12.08 12.082h-12.08c-6.672 0-12.082-5.412-12.082-12.082 0-6.671 5.41-12.082 12.082-12.082z"></path><path fill="#CCE9FF" d="M133.555 314.768h12.082c6.674 0 12.078 5.408 12.078 12.08 0 6.67-5.404 12.08-12.078 12.08h-12.082c-6.672 0-12.08-5.41-12.08-12.08 0-6.672 5.408-12.08 12.08-12.08zm60.404 0h12.08c6.676 0 12.08 5.408 12.08 12.08 0 6.67-5.404 12.08-12.08 12.08h-12.08c-6.672 0-12.08-5.41-12.08-12.08 0-6.672 5.408-12.08 12.08-12.08zm60.404 0h12.08c6.676 0 12.08 5.408 12.08 12.08 0 6.67-5.404 12.08-12.08 12.08h-12.08c-6.672 0-12.082-5.41-12.082-12.08 0-6.672 5.41-12.08 12.082-12.08z"></path></svg>