<svg xmlns="http://www.w3.org/2000/svg" width="400" height="400" id="microscope"><path fill="#D3D3D3" d="M216.84 277.546v3.665c0 4.323-3.539 7.86-7.861 7.86h-36.383a11.592 11.592 0 0 1-1.117-5.014v-2.635h-56.375v7.649H77.572c-4.324 0-7.871-3.538-7.871-7.86v-3.665c0-4.324 3.547-7.862 7.871-7.862h131.406c4.323 0 7.862 3.538 7.862 7.862zm103.467-24.528c-4.76 11.25-11.018 21.713-18.568 31.231.436.373.848.754 1.262 1.158a26.285 26.285 0 0 0-13.799-3.877c-10.25 0-19.143 5.821-23.539 14.331H221.99c1.18 0 2.369-.16 3.506-.511 15.309-4.685 29.309-13.066 40.953-24.709 18.727-18.727 29.031-43.585 29.031-70.068 0-26.472-10.305-51.341-29.031-70.069a99.734 99.734 0 0 0-21.354-16.275A31.369 31.369 0 0 0 225.9 94.151l8.371-13.023c3.07-4.759 9.125-6.649 14.363-4.44l.072.042c16.053 6.798 30.414 16.476 42.768 28.83 12.355 12.312 22.033 26.717 28.832 42.726 7.041 16.604 10.58 34.227 10.58 52.359.001 18.145-3.579 35.769-10.579 52.373zm-89.85-191.436-5.004 7.787-14.902 23.243c-15.115 2.241-26.695 15.265-26.695 30.998 0 3.007.424 5.917 1.221 8.668l-29.373 45.827a11.803 11.803 0 0 1-9.953 5.438c-2.199 0-4.408-.594-6.373-1.858l-8.021-5.151-26.875-17.189-8.139-5.236c-5.514-3.495-7.084-10.814-3.59-16.285L167.55 21.217c2.242-3.506 6.055-5.429 9.955-5.429 2.197 0 4.396.595 6.371 1.848l43.004 27.663c5.499 3.493 7.073 10.812 3.577 16.283zM115.104 334.646c-25.729 1.886-45.99 23.366-45.99 49.568h206.229c6.531 0 11.803-5.27 11.803-11.802v-37.885H118.803c-1.262 0-2.479.037-3.699.119z"></path><path fill="#0B4870" d="M303 285.406a26.285 26.285 0 0 0-13.799-3.877c-14.637 0-26.502 11.866-26.502 26.494 0 13.809 10.568 25.156 24.059 26.388.809.073 1.617.116 2.443.116 14.639 0 26.494-11.866 26.494-26.504 0-9.571-5.078-17.962-12.695-22.617zm-13.799 35.556a12.89 12.89 0 0 1-10.877-5.938 12.828 12.828 0 0 1-2.061-7.001c0-5.385 3.293-9.996 7.979-11.939a12.858 12.858 0 0 1 4.959-.989c7.139 0 12.93 5.79 12.93 12.928 0 7.15-5.791 12.939-12.93 12.939zm-44.105-206.733a31.369 31.369 0 0 0-19.195-20.078 31.132 31.132 0 0 0-10.709-1.879c-1.57 0-3.121.118-4.641.34-15.115 2.241-26.695 15.265-26.695 30.998 0 3.007.424 5.917 1.221 8.668 3.75 13.088 15.807 22.669 30.115 22.669 17.307 0 31.34-14.032 31.34-31.337a31.18 31.18 0 0 0-1.436-9.381zm-29.914 23.551c-7.818 0-14.162-6.342-14.162-14.171 0-7.83 6.344-14.171 14.162-14.171 7.828 0 14.172 6.342 14.172 14.171s-6.344 14.171-14.172 14.171z"></path><path fill="#2A94F4" d="M183.281 295.86h-68.178v-14.438h56.375v2.635c0 1.796.393 3.495 1.117 5.014a11.773 11.773 0 0 0 10.686 6.789zm103.477 38.551H118.799c-1.221 0-2.475.043-3.695.116V295.86h150.559a26.18 26.18 0 0 0-2.963 12.163c-.001 13.809 10.568 25.156 24.058 26.388z"></path><path fill="#0B4870" d="m131.355 176.533-3.707 5.789-3.697 5.779-2.316 3.623c-3.504 5.502-10.824 7.075-16.283 3.581l-7.012-4.484c-5.502-3.505-7.076-10.824-3.58-16.295l2.326-3.611 3.697-5.79 3.697-5.78 26.875 17.188z"></path></svg>