<svg xmlns="http://www.w3.org/2000/svg" width="400" height="400" id="statistics-graph"><path fill="#FFE3CA" d="m211.845 88.338 41.012 13.321-2.966 9.124-41.01-13.319 2.964-9.126zm108.269-37.865 6.699 6.865-47.848 46.666-6.697-6.867 47.846-46.664zM183.129 95.84l7.051 6.507-48.943 53.022-7.052-6.507 48.944-53.022z"></path><path fill="#2A94F4" d="M108.504 224.753h38.687v94.277h-38.687v-94.277zm68.679-74.406h38.687V319.03h-38.687V150.347zm68.679 22.322h38.687V319.03h-38.687V172.669zm68.68-66.962h38.686V319.03h-38.686V105.707z"></path><path fill="#FFBE55" d="M353.228 43.759c0 10.683-8.661 19.343-19.343 19.343-10.685 0-19.345-8.66-19.345-19.343 0-10.684 8.66-19.346 19.345-19.346 10.681 0 19.343 8.662 19.343 19.346zm-68.679 66.961c0 10.682-8.659 19.343-19.343 19.343-10.685 0-19.344-8.661-19.344-19.343 0-10.683 8.659-19.343 19.344-19.343 10.684 0 19.343 8.66 19.343 19.343zm-68.68-22.32c0 10.679-8.659 19.341-19.343 19.341s-19.344-8.662-19.344-19.341c0-10.684 8.66-19.345 19.344-19.345s19.343 8.662 19.343 19.345zm-68.679 74.401c0 10.682-8.659 19.343-19.343 19.343s-19.344-8.661-19.344-19.343c0-10.683 8.66-19.345 19.344-19.345s19.343 8.662 19.343 19.345z"></path><path fill="#D3D3D3" d="M354.413 362.498c0 7.223-5.854 13.089-13.089 13.089H49.693a13.081 13.081 0 0 1-4.106-9.52V37.502c0-7.234 5.867-13.089 13.089-13.089 7.234 0 13.089 5.854 13.089 13.089v311.907h269.56c7.234 0 13.088 5.854 13.088 13.089z"></path></svg>