<svg fill="#2d2d" clip-rule="evenodd" fill-rule="evenodd" stroke-linejoin="round" stroke-miterlimit="2" viewBox="0 0 24 24" xmlns="http://www.w3.org/2000/svg"><path d="m3.378 20c-.76 0-1.378-.608-1.378-1.355 0-.531.315-1.018.843-1.302 1.212-.645 2.614-2.735 2.983-4.286-2.38-.538-3.8-2.394-3.8-4.564 0-2.169 1.859-4.493 4.627-4.493 3.501 0 5.096 2.882 5.096 5.561 0 5.742-6.32 10.439-8.371 10.439zm10.251 0c-.76 0-1.378-.608-1.378-1.355 0-.531.315-1.018.843-1.302 1.212-.645 2.614-2.735 2.983-4.286-2.38-.538-3.8-2.394-3.8-4.564 0-2.169 1.859-4.493 4.627-4.493 3.501 0 5.096 2.882 5.096 5.561 0 5.742-6.32 10.439-8.371 10.439zm-6.21-8.428c.112 3-1.984 5.754-3.649 6.966 1.911-.782 6.479-4.857 6.479-8.977 0-1.869-.942-4.051-3.596-4.051-1.871 0-3.127 1.542-3.127 2.983 0 1.453.862 3.166 3.893 3.079zm10.251 0c.112 3-1.984 5.754-3.649 6.966 1.911-.782 6.479-4.857 6.479-8.977 0-1.869-.942-4.051-3.596-4.051-1.871 0-3.127 1.542-3.127 2.983 0 1.453.862 3.166 3.893 3.079z" fill-rule="nonzero"/></svg>