<svg xmlns="http://www.w3.org/2000/svg" width="48px" height="48px" viewBox="0 0 80 80" id="secure-web" ><path fill="#00a7d5" fill-rule="evenodd" d="M400.62 130.02c-.22-.02-.42-.02-.62-.02a39.9 39.9 0 0 0-33.68 18.42 2 2 0 1 0 3.36 2.16 37.536 37.536 0 0 1 4.4-5.58h11.78a58.785 58.785 0 0 0-2.54 9.8h-.02a31.65 31.65 0 0 1-6.38.88 2.027 2.027 0 0 0-1.42.7 1.921 1.921 0 0 0-.48 1.52 80.14 80.14 0 0 0 1.64 10.1h-12.58a33.815 33.815 0 0 1 1.04-6.96 1.994 1.994 0 1 0-3.86-1 39.986 39.986 0 0 0 38.12 49.94c.2.02.42.02.62.02s.4 0 .62-.02a39.985 39.985 0 0 0 0-79.96zM435.94 168h-12.6a80.037 80.037 0 0 0 1.66-10.1 2.022 2.022 0 0 0-1.92-2.22 31.65 31.65 0 0 1-6.38-.88h-.02a58.785 58.785 0 0 0-2.54-9.8h11.72a35.742 35.742 0 0 1 10.08 23zm-14.62-27h-8.82a27.99 27.99 0 0 0-3.58-5.88 35.827 35.827 0 0 1 12.4 5.88zm-21.76-6.98a4.85 4.85 0 0 1 .88 0c4.58.46 9.44 7.84 11.9 19.4a25.954 25.954 0 0 1-10.78-7.84 1.971 1.971 0 0 0-1.56-.76 2 2 0 0 0-1.56.76 25.954 25.954 0 0 1-10.78 7.84c2.46-11.56 7.32-18.94 11.9-19.4zm-20.9 6.98a35.481 35.481 0 0 1 12.44-5.9 28.518 28.518 0 0 0-3.6 5.9h-8.84zm4 18.04a34.53 34.53 0 0 0 4.18-1.06 31.13 31.13 0 0 0 13.16-8.1 31.13 31.13 0 0 0 13.16 8.1 34.53 34.53 0 0 0 4.18 1.06c1.12.22 2.28.38 3.44.5a75.983 75.983 0 0 1-1.54 8.46c-.34 1.42-.72 2.76-1.14 4a3.174 3.174 0 0 1-.14.4 35.76 35.76 0 0 1-4.84 9.8 21.749 21.749 0 0 1-13.12 8.98 21.887 21.887 0 0 1-13.14-9 36.048 36.048 0 0 1-4.82-9.8 2.916 2.916 0 0 1-.14-.38c-.4-1.24-.78-2.58-1.12-4a71.441 71.441 0 0 1-1.56-8.46c1.16-.12 2.32-.28 3.44-.5zM364.06 172h13.66a42.717 42.717 0 0 0 5.3 11.54 63.167 63.167 0 0 0 2.84 11.46h-11.72a35.742 35.742 0 0 1-10.08-23zm14.64 27h8.8a27.787 27.787 0 0 0 3.56 5.86A35.41 35.41 0 0 1 378.7 199zm21.3 7c-4.3 0-8.92-6.24-11.64-16.44a26.925 26.925 0 0 0 11.16 5.62 1.95 1.95 0 0 0 .96 0 27.009 27.009 0 0 0 11.16-5.6C408.92 199.76 404.3 206 400 206zm8.94-1.12a28.822 28.822 0 0 0 3.56-5.88h8.82a35.732 35.732 0 0 1-12.38 5.88zm16.92-9.88h-11.72a61.141 61.141 0 0 0 2.82-11.42 42.413 42.413 0 0 0 5.32-11.58h13.66a35.742 35.742 0 0 1-10.08 23z" data-name="Secure Web" transform="translate(-360 -130)"></path></svg>