<svg xmlns="http://www.w3.org/2000/svg" fill-rule="evenodd" stroke-linejoin="round" stroke-miterlimit="2" clip-rule="evenodd" viewBox="0 0 32 32" width="48px" id="schedule" fill="green"><path d="M23,4l-6,0l0,-1c0,-0.552 -0.448,-1 -1,-1c-0.552,-0 -1,0.448 -1,1l0,1l-6,0l0,-1c0,-0.552 -0.448,-1 -1,-1c-0.552,-0 -1,0.448 -1,1l0,1l-2,0c-1.656,0 -3,1.344 -3,3c0,0 0,20 0,20c0,1.656 1.344,3 3,3l22,0c1.656,0 3,-1.344 3,-3l0,-20c0,-1.656 -1.344,-3 -3,-3l-2,0l0,-1c0,-0.552 -0.448,-1 -1,-1c-0.552,-0 -1,0.448 -1,1l0,1Zm5,8l0,15c0,0.552 -0.448,1 -1,1c-0,0 -22,0 -22,0c-0.552,0 -1,-0.448 -1,-1l0,-15l24,0Zm-19,9c-1.104,0 -2,0.896 -2,2c0,1.104 0.896,2 2,2c1.104,0 2,-0.896 2,-2c0,-1.104 -0.896,-2 -2,-2Zm7,0c-1.104,0 -2,0.896 -2,2c0,1.104 0.896,2 2,2c1.104,0 2,-0.896 2,-2c0,-1.104 -0.896,-2 -2,-2Zm-7,-6c-1.104,0 -2,0.896 -2,2c0,1.104 0.896,2 2,2c1.104,0 2,-0.896 2,-2c0,-1.104 -0.896,-2 -2,-2Zm7,0c-1.104,0 -2,0.896 -2,2c0,1.104 0.896,2 2,2c1.104,0 2,-0.896 2,-2c0,-1.104 -0.896,-2 -2,-2Zm7,0c-1.104,0 -2,0.896 -2,2c0,1.104 0.896,2 2,2c1.104,0 2,-0.896 2,-2c0,-1.104 -0.896,-2 -2,-2Zm2,-9l-2,0l0,1c0,0.552 0.448,1 1,1c0.552,-0 1,-0.448 1,-1l0,-1Zm-8,0l-2,0l0,1c-0,0.552 0.448,1 1,1c0.552,0 1,-0.448 1,-1l0,-1Zm-8,0l-2,0l0,1c-0,0.552 0.448,1 1,1c0.552,0 1,-0.448 1,-1l0,-1Z"></path></svg>