<svg xmlns="http://www.w3.org/2000/svg" width="48px" height="48px" viewBox="0 0 24 24" id="update" fill="green"><path d="M12 22C6.5 22 2 17.5 2 12c0-.6.4-1 1-1s1 .4 1 1c0 4.4 3.6 8 8 8s8-3.6 8-8-3.6-8-8-8C9.3 4 6.8 5.3 5.4 7.6c-.4.4-1 .5-1.4.2-.5-.3-.6-.9-.3-1.4C5.5 3.7 8.7 2 12 2c5.5 0 10 4.5 10 10s-4.5 10-10 10z"></path><path d="M12 13c-.6 0-1-.4-1-1V7c0-.6.4-1 1-1s1 .4 1 1v5c0 .6-.4 1-1 1z"></path><path d="M15 16c-.3 0-.5-.1-.7-.3l-3-3c-.4-.4-.4-1 0-1.4s1-.4 1.4 0l3 3c.4.4.4 1 0 1.4-.2.2-.4.3-.7.3zM8 8H4c-.6 0-1-.4-1-1V3c0-.6.4-1 1-1s1 .4 1 1v3h3c.6 0 1 .4 1 1s-.4 1-1 1z"></path></svg>