<svg xmlns="http://www.w3.org/2000/svg" viewBox="0 0 64 64" id="targets"><path fill="orange" d="M32 30c-1.1 0-2 .9-2 2s.9 2 2 2 2-.9 2-2-.9-2-2-2zm0-11c-7.2 0-13 5.8-13 13s5.8 13 13 13 13-5.8 13-13-5.8-13-13-13zm0 24c-6.1 0-11-4.9-11-11s4.9-11 11-11 11 4.9 11 11-4.9 11-11 11zm25-11C57 18.2 45.8 7 32 7S7 18.2 7 32s11.2 25 25 25c9.8 0 18.7-5.8 22.7-14.7.1-.2.1-.3.1-.5.1-.1.3-.2.3-.4.5-1.2.9-2.4 1.2-3.6.1-.2 0-.5-.1-.7.2-.1.3-.3.4-.6.3-1.2.4-2.7.4-4.5zm-3.9 6c-.3.2-.5.6-.4 1l.4 1.6-3.1-1.1-.5-2.2.7-.5.1-.1 1-.7 3.1 1.1-1.3.9zm1.7-2.9-3.4-1.2c-.2-.1-.3-.1-.5 0 0-.6.1-1.2.1-1.8 0-10.5-8.5-19-19-19s-19 8.5-19 19 8.5 19 19 19c7.1 0 13.4-3.8 16.6-9.9 0 0 .1 0 .1.1l3.7 1.3C48.6 50.1 40.7 55 32 55 19.3 55 9 44.7 9 32S19.3 9 32 9s23 10.3 23 23c0 1.1-.1 2.2-.2 3.1zM47.3 37l.3 1.5C45.1 44.9 38.9 49 32 49c-9.4 0-17-7.6-17-17s7.6-17 17-17 17 7.6 17 17c0 1.2-.1 2.3-.3 3.3l-1 .7c-.3.2-.5.6-.4 1zM32 25c-3.9 0-7 3.1-7 7s3.1 7 7 7 7-3.1 7-7-3.1-7-7-7zm0 12c-2.8 0-5-2.2-5-5s2.2-5 5-5 5 2.2 5 5-2.2 5-5 5z"></path><path fill="#F04A00" d="M57.5 36.5c-.1-.4-.3-.7-.7-.8l-5.4-1.9c-.3-.1-.7-.1-.9.1L49 35.1l-.9.6L32.3 31c-.5-.2-1.1.1-1.2.7-.2.5.1 1.1.7 1.2l15.8 4.6.3 1.2.3 1.5c.1.3.3.6.6.7l4.8 1.8.6.2c.1 0 .2.1.3.1.2 0 .5-.1.7-.2.3-.2.4-.6.3-.9l-.2-1.2-.4-1.5 2.3-1.7c.2-.2.3-.6.3-1zM53.1 38c-.3.2-.5.7-.4 1.1l.4 1.5-3.1-1.2-.2-1-.3-1.1 1.8-1.3 3.1 1.1-1.3.9z"></path></svg>