<svg xmlns="http://www.w3.org/2000/svg" viewBox="0 0 32 32" id="headphone"><linearGradient id="a" x1="1.833" x2="28.301" y1="21.5" y2="21.5" gradientUnits="userSpaceOnUse"><stop offset="0" stop-color="#2B2E81"></stop><stop offset="1" stop-color="#4169E1"></stop></linearGradient><path fill="url(#a)" d="M18.6 21h-5.2c-.3 0-.5.2-.5.5s.2.5.5.5h5.2c.3 0 .5-.2.5-.5s-.2-.5-.5-.5z"></path><linearGradient id="b" x1="1.833" x2="28.301" y1="23.5" y2="23.5" gradientUnits="userSpaceOnUse"><stop offset="0" stop-color="#2B2E81"></stop><stop offset="1" stop-color="#1976d2"></stop></linearGradient><path fill="url(#b)" d="M16.6 23h-3.2c-.3 0-.5.2-.5.5s.2.5.5.5h3.2c.3 0 .5-.2.5-.5s-.2-.5-.5-.5z"></path><linearGradient id="c" x1="1.833" x2="28.301" y1="16" y2="16" gradientUnits="userSpaceOnUse"><stop offset="0" stop-color="#4169E1"></stop><stop offset="1" stop-color="#0070FF"></stop></linearGradient><path fill="url(#c)" d="M27.5 16H27v-2.5-.1c.2-.1.4-.2.6-.4.3-.3.4-.7.4-1.2C27.4 5.7 22.2 1 16 1S4.6 5.7 4.1 11.9c0 .4.1.8.4 1.2.2.2.4.3.6.4V16h-.6c-.8 0-1.5.7-1.5 1.5v4c0 .8.7 1.5 1.5 1.5h1.6c.2.6.8 1 1.4 1 .8 0 1.5-.7 1.5-1.5v-6c0-.8-.7-1.5-1.5-1.5-.7 0-1.2.4-1.4 1H6v-2.5-.1c.6-.2 1-.7 1.1-1.3C7.5 7.5 11.3 4 16 4s8.5 3.5 9 8.2c.1.6.5 1.1 1.1 1.3V16H26c-.2-.6-.8-1-1.4-1-.8 0-1.5.7-1.5 1.5v6c0 .8.7 1.5 1.5 1.5.7 0 1.2-.4 1.4-1h1v.5c0 3-2.5 5.5-5.5 5.5h-1.6c-.2-.6-.8-1-1.4-1h-1c-.8 0-1.5.7-1.5 1.5s.7 1.5 1.5 1.5h1c.7 0 1.2-.4 1.4-1h1.6c3.6 0 6.5-2.9 6.5-6.5v-.6c.6-.2 1-.8 1-1.4v-4c0-.8-.7-1.5-1.5-1.5zM4 21.5v-4c0-.3.2-.5.5-.5H6v5H4.5c-.3 0-.5-.2-.5-.5zM7.5 16c.3 0 .5.2.5.5v6c0 .3-.2.5-.5.5s-.5-.2-.5-.5v-6c0-.3.2-.5.5-.5zM16 3c-5.2 0-9.5 3.9-10 9.1 0 .4-.6.6-.9.3 0-.2-.1-.3-.1-.5C5.6 6.3 10.3 2 16 2s10.4 4.3 11 9.9c0 .1 0 .3-.1.4-.1.1-.2.2-.4.2-.3 0-.5-.2-.5-.4C25.5 6.9 21.2 3 16 3zm2.5 27h-1c-.3 0-.5-.2-.5-.5s.2-.5.5-.5h1c.3 0 .5.2.5.5s-.2.5-.5.5zm6-7c-.3 0-.5-.2-.5-.5v-6c0-.3.2-.5.5-.5s.5.2.5.5v6c0 .3-.2.5-.5.5zm3.5-1.5c0 .3-.2.5-.5.5H26v-5h1.5c.3 0 .5.2.5.5v4z"></path><linearGradient id="d" x1="1.833" x2="28.301" y1="23.5" y2="23.5" gradientUnits="userSpaceOnUse"><stop offset="0" stop-color="#2B2E81"></stop><stop offset="1" stop-color="#1976d2"></stop></linearGradient><path fill="url(#d)" d="M19.5 26c.8 0 1.5-.7 1.5-1.5v-4c0-.8-.7-1.5-1.5-1.5h-7c-.8 0-1.5.7-1.5 1.5v4c0 .8.7 1.5 1.5 1.5h.5v1.5c0 .2.1.4.3.4.1 0 .2.1.2.1.1 0 .2 0 .3-.1l2.9-1.9h2.8zm-3.3-.9L14 26.6v-1.1c0-.3-.2-.5-.5-.5h-1c-.3 0-.5-.2-.5-.5v-4c0-.3.2-.5.5-.5h7c.3 0 .5.2.5.5v4c0 .3-.2.5-.5.5h-3c-.1 0-.2 0-.3.1z"></path></svg>