<svg xmlns="http://www.w3.org/2000/svg" viewBox="0 0 64 64" id="student" width="100px"><path fill="#1d252d" d="M16 41h32a4 4 0 0 1 4 4v16H12V45a4 4 0 0 1 4-4Z"></path><path fill="#f4a490" d="M48 46.7a65.247 65.247 0 0 0-8.279-3.96C38.55 41.671 37.418 39.047 37 38v-2H27v2c-.418 1.051-1.55 3.675-2.721 4.744A65.247 65.247 0 0 0 16 46.7 16.094 16.094 0 0 0 7 61h50a16.094 16.094 0 0 0-9-14.3Z"></path><path fill="#e4f4fd" d="M48 46.7a65.125 65.125 0 0 0-8.28-3.96L32 46l-7.72-3.26A65.125 65.125 0 0 0 16 46.7 16.094 16.094 0 0 0 7 61h50a16.094 16.094 0 0 0-9-14.3Z"></path><path fill="#01cadb" d="M48 46.7a65.125 65.125 0 0 0-8.28-3.96L32 46l-7.72-3.26A65.125 65.125 0 0 0 16 46.7 38.671 38.671 0 0 1 17.39 61h29.22A38.671 38.671 0 0 1 48 46.7Z"></path><path fill="#2e3d4c" d="M17.53 57.5c0 1.2-.05 2.37-.14 3.5h4.47c.09-1.13.14-2.3.14-3.5 0-5.39-.98-10.18-2.49-13.19-1.32.62-2.54 1.26-3.68 1.9a34.5 34.5 0 0 1 1.7 11.29Z"></path><path fill="#ffd5c5" d="M21 15v14.578c0 5.049 4.925 9.142 11 9.142s11-4.093 11-9.142V15Z"></path><path fill="#f4a490" d="M43 29a4 4 0 0 0 0-8zm-22 0a4 4 0 0 1 0-8z"></path><path fill="#1d252d" d="M32 3a20.778 20.778 0 0 0-2.88.2C22.21 4.19 17 8.67 17 14.04V25l11-7s11 7 19 7V14.04C47 7.94 40.28 3 32 3Z"></path><path fill="#2e3d4c" d="M46.47 57.5c0 1.2.05 2.37.14 3.5h-4.47c-.09-1.13-.14-2.3-.14-3.5 0-5.39.98-10.18 2.49-13.19 1.32.62 2.54 1.26 3.68 1.9a34.5 34.5 0 0 0-1.7 11.29Z"></path><path fill="#e4f4fd" d="M39.721 42.74h-.001L32 46l-7.72-3.26h-.001l-.001.002L32 61l7.722-18.258-.001-.002z"></path><path fill="#01727b" d="M34.72 54.59 32 61l-2.72-6.41 1.876-7.186h1.688l1.876 7.186z"></path><path fill="#0198a4" d="M34.661 46.339 32 44.172l-2.661 2.167L32 49l2.661-2.661z"></path><path fill="#c9dfeb" d="M37.998 40.204 32 44.172l5.293 4.313 2.429-5.743-1.724-2.538zM26.002 40.204 32 44.172l-5.293 4.313-2.429-5.743 1.724-2.538z"></path><path fill="#f4a490" d="M39.654 26.442a1 1 0 0 0-1.4.149 1.551 1.551 0 0 1-2.489-.081.989.989 0 0 0-1.414 0 1 1 0 0 0 0 1.414 3.545 3.545 0 0 0 5.468-.088.993.993 0 0 0-.165-1.394zm-9.925 1.394a1 1 0 0 0-1.564-1.246 1.557 1.557 0 0 1-2.489-.08.988.988 0 0 0-1.414 0 1 1 0 0 0 0 1.414 3.545 3.545 0 0 0 5.467-.088zm4.971 5.432a1 1 0 0 0 .01-1.414.991.991 0 0 0-1.414-.01 1.815 1.815 0 0 1-2.586.01.98.98 0 0 0-1.414-.01 1.008 1.008 0 0 0-.01 1.414 3.867 3.867 0 0 0 5.414.01z"></path></svg>