<svg xmlns="http://www.w3.org/2000/svg" viewBox="0 0 64 64" id="book-idea" width="100px"><path fill="#51caf4" d="M3,53.5v3a.5.5,0,0,0,.5.5H27.533a.507.507,0,0,1,.494.467,4,4,0,0,0,7.946,0A.507.507,0,0,1,36.467,57H60.5a.5.5,0,0,0,.5-.5v-3a.5.5,0,0,0-.5-.5H3.5A.5.5,0,0,0,3,53.5Z"></path><path fill="#edecbc" d="M31,53H5V45.5a.5.5,0,0,1,.5-.5H23a8,8,0,0,1,8,8Z"></path><path fill="#ccca96" d="M25,50H9a1,1,0,0,1,0-2H25a1,1,0,0,1,0,2Z"></path><path fill="#edecbc" d="M33,53H59V45.5a.5.5,0,0,0-.5-.5H41a8,8,0,0,0-8,8Z"></path><path fill="#ccca96" d="M55,50H39a1,1,0,0,1,0-2H55a1,1,0,0,1,0,2Z"></path><path fill="#f9ad62" d="M44,19A12,12,0,1,0,26.2,29.5a1.493,1.493,0,0,1,.8,1.3V31.5A1.5,1.5,0,0,0,28.5,33h7A1.5,1.5,0,0,0,37,31.5v-.649a1.513,1.513,0,0,1,.759-1.334A11.984,11.984,0,0,0,44,19Z"></path><rect width="10" height="4" x="27" y="33" fill="#aaa" rx="1.5"></rect><rect width="10" height="4" x="27" y="37" fill="#969696" rx="1.5"></rect><path fill="#707070" d="M35,41a3,3,0,0,1-6,0Z"></path><path fill="#f9b443" d="M20.687 8.687a1 1 0 0 1-.708-.293L17.858 6.272a1 1 0 1 1 1.414-1.414l2.122 2.121a1 1 0 0 1-.707 1.708zM45.435 33.435a1 1 0 0 1-.707-.293l-2.122-2.121a1 1 0 0 1 1.415-1.415l2.121 2.122a1 1 0 0 1-.707 1.707zM43.313 8.687a1 1 0 0 1-.707-1.708l2.122-2.121a1 1 0 1 1 1.414 1.414L44.021 8.394A1 1 0 0 1 43.313 8.687zM18.565 33.435a1 1 0 0 1-.707-1.707l2.121-2.122a1 1 0 0 1 1.415 1.415l-2.122 2.121A1 1 0 0 1 18.565 33.435zM51 20H48a1 1 0 0 1 0-2h3a1 1 0 0 1 0 2zM16 20H13a1 1 0 0 1 0-2h3a1 1 0 0 1 0 2z"></path><path fill="#d3963d" d="M33,33H31V22.954l-3.658-3.2a1,1,0,1,1,1.316-1.5L32,21.171l3.342-2.923a1,1,0,1,1,1.316,1.5L33,22.954Z"></path><path d="M60.5,52H60V45.5A1.5,1.5,0,0,0,58.5,44H41a9.01,9.01,0,0,0-8.941,8h-.118A9.01,9.01,0,0,0,23,44H5.5A1.5,1.5,0,0,0,4,45.5V52H3.5A1.5,1.5,0,0,0,2,53.5v3A1.5,1.5,0,0,0,3.5,58H27.1a5,5,0,0,0,9.8,0H60.5A1.5,1.5,0,0,0,62,56.5v-3A1.5,1.5,0,0,0,60.5,52ZM41,46H58v6H34.071A7.011,7.011,0,0,1,41,46ZM6,46H23a7.011,7.011,0,0,1,6.929,6H6ZM60,56H36.468a1.512,1.512,0,0,0-1.489,1.351,3,3,0,0,1-5.958,0A1.512,1.512,0,0,0,27.532,56H4V54H60Z"></path><path d="M25 48H9a1 1 0 0 0 0 2H25a1 1 0 0 0 0-2zM55 48H39a1 1 0 0 0 0 2H55a1 1 0 0 0 0-2zM25.718 30.37a.5.5 0 0 1 .282.422V31.5a2.471 2.471 0 0 0 .513 1.5A2.471 2.471 0 0 0 26 34.5v1a2.471 2.471 0 0 0 .513 1.5A2.471 2.471 0 0 0 26 38.5v1a2.5 2.5 0 0 0 2.13 2.463 3.984 3.984 0 0 0 7.74 0A2.5 2.5 0 0 0 38 39.5v-1a2.471 2.471 0 0 0-.513-1.5A2.471 2.471 0 0 0 38 35.5v-1a2.471 2.471 0 0 0-.513-1.5A2.471 2.471 0 0 0 38 31.5v-.649a.516.516 0 0 1 .239-.457A12.994 12.994 0 0 0 31.464 6.011 13.164 13.164 0 0 0 19 18.762 12.977 12.977 0 0 0 25.718 30.37zM35.5 34a.5.5 0 0 1 .5.5v1a.5.5 0 0 1-.5.5h-7a.5.5 0 0 1-.5-.5v-1a.5.5 0 0 1 .5-.5zM32 43a2 2 0 0 1-1.731-1h3.462A2 2 0 0 1 32 43zm4-3.5a.5.5 0 0 1-.5.5h-7a.5.5 0 0 1-.5-.5v-1a.5.5 0 0 1 .5-.5h7a.5.5 0 0 1 .5.5zM31.544 8.009C31.7 8 31.852 8 32 8a10.993 10.993 0 0 1 5.274 20.64A2.5 2.5 0 0 0 36 30.851V31.5a.5.5 0 0 1-.5.5H33V22.954l3.658-3.2a1 1 0 1 0-1.316-1.5L32 21.171l-3.342-2.923a1 1 0 1 0-1.316 1.5L31 22.954V32H28.5a.5.5 0 0 1-.5-.5v-.708a2.5 2.5 0 0 0-1.313-2.172A10.979 10.979 0 0 1 21 18.8 11.138 11.138 0 0 1 31.544 8.009zM19.979 8.394a1 1 0 1 0 1.415-1.415L19.272 4.858a1 1 0 1 0-1.414 1.414z"></path><path d="M44.021 29.606a1 1 0 0 0-1.415 1.415l2.122 2.121a1 1 0 0 0 1.414-1.414zM43.313 8.687a1 1 0 0 0 .708-.293l2.121-2.122a1 1 0 1 0-1.414-1.414L42.606 6.979a1 1 0 0 0 .707 1.708zM18.565 33.435a1 1 0 0 0 .707-.293l2.122-2.121a1 1 0 0 0-1.415-1.415l-2.121 2.122a1 1 0 0 0 .707 1.707zM48 20h3a1 1 0 0 0 0-2H48a1 1 0 0 0 0 2zM13 20h3a1 1 0 0 0 0-2H13a1 1 0 0 0 0 2z"></path></svg>