<svg xmlns="http://www.w3.org/2000/svg" viewBox="0 0 32 32" id="trophy" width="100px"><path fill="#8aa8bd" d="M19.5 25h-7l1-12h5l1 12z"></path><path fill="#ffcd69" d="M16 18a7.94 7.94 0 0 1-7.87-6.95L7 2h18l-1.13 9.05A7.94 7.94 0 0 1 16 18zm10 12H6l1.5-3.74A2 2 0 0 1 9.35 25h13.3a2 2 0 0 1 1.85 1.26z"></path><path d="M28 4h-2.24L26 2.12a1 1 0 0 0-.24-.78A1 1 0 0 0 25 1H7a1 1 0 0 0-.75.34 1 1 0 0 0-.25.78L6.24 4H4a3 3 0 0 0-3 3v3a5 5 0 0 0 5 5h2.56a9 9 0 0 0 3.51 3.09L11.58 24H9.35a3 3 0 0 0-2.78 1.89l-1.5 3.74A1 1 0 0 0 6 31h20a1 1 0 0 0 .93-1.37l-1.5-3.75A3 3 0 0 0 22.65 24h-2.23l-.49-5.91A9 9 0 0 0 23.44 15H26a5 5 0 0 0 5-5V7a3 3 0 0 0-3-3ZM6 13a3 3 0 0 1-3-3V7a1 1 0 0 1 1-1h2.49l.65 5.18A9.11 9.11 0 0 0 7.57 13Zm17.57 13.63.95 2.37h-17l.95-2.37a1 1 0 0 1 .88-.63h13.3a1 1 0 0 1 .92.63ZM18.41 24h-4.82l.41-5.23a8.64 8.64 0 0 0 4 0ZM16 17a7 7 0 0 1-6.88-6.07L8.13 3h15.74l-1 7.93A7 7 0 0 1 16 17Zm13-7a3 3 0 0 1-3 3h-1.57a9.11 9.11 0 0 0 .43-1.82L25.51 6H28a1 1 0 0 1 1 1Z"></path></svg>