<svg xmlns="http://www.w3.org/2000/svg" enable-background="new 0 0 68 68" viewBox="0 0 68 68" width="100px" id="professor"><path fill="#FF7E7E" d="M65.8475,21.0792v12.0501c0,0.5438-0.4408,0.9846-0.9846,0.9846H52.0208l-4.6894,2.2603
			c-0.6537,0.3151-1.4121-0.1612-1.4121-0.8869v-1.3734v-3.9757v-9.059c0-0.5438,0.4408-0.9846,0.9846-0.9846h17.959
			C65.4067,20.0946,65.8475,20.5354,65.8475,21.0792z"></path><path fill="#EF3D3D" d="M65.8489,21.0805v12.0514c0,0.5438-0.4408,0.9846-0.9846,0.9846H52.0252l-4.6933,2.2559
			c-0.6536,0.3142-1.4111-0.1622-1.4111-0.8874v-3.3278c18.1657,0.7089,17.3485-8.2213,16.167-12.0613h2.7766
			C65.4081,20.0959,65.8489,20.5367,65.8489,21.0805z"></path><polygon fill="#F59F02" points="21.191 28.561 21.191 39.838 29.278 42.392 37.365 39.838 37.365 28.561"></polygon><path fill="#FBC41A" d="M40.1774,21.0023c0-6.7108-4.9638-12.151-11.087-12.151s-11.087,5.4402-11.087,12.151
				s4.9638,15.5913,11.087,15.5913S40.1774,27.7131,40.1774,21.0023z"></path><path fill="#F59F02" d="M40.1736,21.0076c0,6.7083-4.9648,15.5873-11.0843,15.5873c-4.0412,0-7.5858-3.8795-9.514-8.4402
				c1.8935,2.3901,4.3067,4.0181,6.9392,4.0181c6.1195,0,11.0843-8.879,11.0843-15.5873c0-1.4664-0.2425-2.8751-0.6697-4.1798
				C38.9382,14.611,40.1736,17.6477,40.1736,21.0076z"></path><path fill="#A3A6A8" d="M19.9035,14.4188c0,0,8.3488,4.2101,16.198-1.8553c0,0-0.6422,6.1367,4.2101,8.5628
				c0,0,7.1357-14.8422-4.0673-15.7699c0,0-7.6987-4.5647-15.5558,0.7136c0,0-7.207,3.8533-2.7829,15.6272
				C17.9055,21.6972,19.2613,15.9173,19.9035,14.4188z"></path><path fill="#818384" d="M40.3122,21.1231c-0.508-0.2541-0.9468-0.5427-1.3393-0.8775c0.5773-2.5055,0.6927-5.5999,0.6927-5.5999
				c0.0248-1.9843-4.1892-5.2867-6.8848-7.1945c-1.4187-1.0041-3.2309-1.2447-4.8657-0.6547
				c-3.647,1.3163-9.9007,4.2876-11.3418,9.535c-0.8428-7.6204,4.1104-10.2645,4.1104-10.2645
				c4.1681-2.7941,8.2901-2.8288,11.2345-2.24c0.1616,0.0347,0.3233,0.0693,0.4849,0.1039c0.5542,0.1154,1.0507,0.2655,1.501,0.4156
				C35.3705,4.8314,36.248,5.351,36.248,5.351C47.4477,6.2862,40.3122,21.1231,40.3122,21.1231z"></path><polygon fill="#C7CBD1" points="29.278 42.392 22.906 48.392 29.278 64.564 35.65 48.392"></polygon><path fill="#231F20" d="M29.2784,65.0643c-0.2056,0-0.3896-0.1255-0.4653-0.3169L22.441,48.5755
			c-0.0747-0.1899-0.0264-0.4067,0.1226-0.5474l6.3721-6c0.1924-0.1807,0.4932-0.1812,0.6855,0.0005l6.3716,6
			c0.1489,0.1401,0.1973,0.3569,0.1226,0.5469l-6.3716,16.1719C29.6685,64.9388,29.4839,65.0643,29.2784,65.0643z M23.4957,48.5243
			l5.7827,14.6763l5.7822-14.6763l-5.7822-5.4448L23.4957,48.5243z"></path><path fill="#FF7E7E" d="M32.5091,64.5185L31.0168,48.22c-0.0077-0.0891,0.0086-0.1787,0.0473-0.2594l1.0217-3.0179l-2.8076-2.5503
		l-2.8076,2.5503l1.4127,2.7613c0.0768,0.102,0.1117,0.2294,0.0976,0.3563l-1.9335,16.4581H32.5091z"></path><path fill="#00A388" d="M18.1928,37.1917c0,0-4.7522,4.4861-8.3956,6.6784c-3.1642,1.904-5.681,4.759-6.7779,8.2852
			c-0.8969,2.8832-1.4422,6.7946-1.0312,12.0259l26.9895,0.3832L18.1928,37.1917z"></path><path fill="#03846B" d="M1.9895,64.1864l26.9949,0.381l-0.866-2.1822l-13.5686-0.1935c-2.9597-0.0422-5.3038-2.5394-5.1462-5.4952
			c0.1409-2.6418,0.5611-4.8217,1.1185-6.608c1.0969-3.5216,3.614-6.385,6.7776-8.2786c0.6812-0.4156,1.4086-0.9122,2.136-1.4433
			l-1.2469-3.1752c0,0-4.7455,4.4915-8.3941,6.6736c-3.1636,1.9051-5.6807,4.7686-6.7776,8.2901
			C2.1281,55.0418,1.5739,58.9444,1.9895,64.1864z"></path><path fill="#FFF" d="M29.2782 42.3925l6.3718 5.9998 4.4131-11.2007-.8866-1.0836c-.3305-.4039-.9209-.475-1.3378-.1611L29.2782 42.3925zM29.2782 42.3925l-6.3718 5.9998-4.4131-11.2007.8866-1.0836c.3305-.4039.9209-.475 1.3378-.1611L29.2782 42.3925z"></path><path fill="#00A388" d="M39.7744,37.1917c0,0,4.7522,4.4861,8.3956,6.6784c3.1642,1.904,5.681,4.759,6.7779,8.2852
			c0.8969,2.8832,1.4422,6.7946,1.0312,12.0259l-26.9895,0.3832L39.7744,37.1917z"></path><path fill="#03846B" d="M55.9793,64.1864l-26.9949,0.381l0.866-2.1822l13.5686-0.1935c2.9598-0.0422,5.3038-2.5394,5.1462-5.4952
			c-0.1409-2.6418-0.5611-4.8217-1.1185-6.608c-1.0969-3.5216-3.614-6.385-6.7776-8.2786c-0.6812-0.4156-1.4086-0.9122-2.136-1.4433
			l1.2469-3.1752c0,0,4.7455,4.4915,8.3941,6.6736c3.1636,1.9051,5.6807,4.7686,6.7776,8.2901
			C55.8408,55.0418,56.395,58.9444,55.9793,64.1864z"></path><path d="M48.9704,43.0176c-4.9918-3.0137-8.92-7.4469-9.02-7.54c-0.39-0.48-0.99-0.73-1.59-0.71v-3.9c1.64-2.8,2.68-6.13,2.8-9.23
			c0.02-0.02,0.04-0.05,0.05-0.08c0.17-0.35,4.16-8.78,1.31-13.76c-1.14-1.99-3.15-3.14-5.98-3.42c-0.79-0.43-3.75-1.85-7.65-1.85
			c-3.12,0-6.06,0.91-8.74,2.7c-0.76,0.46-7.63,4.99-3.18,16.8199c0.02,0.05,0.04,0.1,0.08,0.15c0.24,3.16,1.39,6.51,3.14,9.27v3.3
			c-0.6-0.01-1.2,0.23-1.58,0.71l-0.8,0.99c0,0,0,0-0.02,0.02c-2.2431,2.0626-5.6042,4.9537-8.21,6.53
			c-3.54,2.13-6.1,5.27-7.22,8.84c-1.08,3.49-1.44,7.66-1.07,12.4c0.04,0.52,0.47,0.92,0.98,0.92
			c16.8327,0.0131,8.5667,0.6567,54.01,0c0.52,0,0.94-0.4,0.98-0.92c0.38-4.74,0.02-8.91-1.07-12.4
			C55.0804,48.2876,52.5204,45.1476,48.9704,43.0176z M38.4004,36.7376l0.52,0.63c-2.912,7.4084-1.1284,2.8614-3.66,9.28
			c-9.5511-9.0998,1.3635,1.2885-4.42-4.19c12.9072-9.7739-0.9176,0.6942,7.52-5.69L38.4004,36.7376z M29.2804,61.8376l-1.47-3.74
			l1.16-9.93c0.04-0.34-0.04-0.69-0.23-0.98l-1.01-1.97l1.55-1.45l1.63,1.53l-0.78,2.3c-0.09,0.22-0.13,0.46-0.11,0.71l0.86,9.46
			L29.2804,61.8376z M26.2204,46.6376l0.75,1.47l-0.71,6.06l-2.18-5.51L26.2204,46.6376z M32.0204,48.2476l0.49-1.44l1.96,1.85
			l-1.96,4.97L32.0204,48.2476z M21.1604,6.9476c0.03-0.01,0.06-0.03,0.09-0.05c2.34-1.57,4.91-2.37,7.64-2.37
			c3.91,0,6.82,1.67,6.84,1.69c0.13,0.08,0.28,0.12,0.43,0.14c2.28,0.18,3.79,0.98,4.62,2.43c1.34,2.34,0.7,5.9-0.09,8.52
			c-0.29,0.95-0.6,1.77-0.84,2.37c-0.32-0.24-0.61-0.49-0.86-0.77c-1.35-1.46-1.77-3.35-1.88-4.67
			c-0.07-0.8799-0.02-1.5-0.01-1.5699c0.04-0.4-0.16-0.78-0.51-0.98c-0.15-0.08-0.32-0.12-0.49-0.12c-0.447,0-0.6364,0.2384-1,0.49
			c-2.54,1.85-5.39,2.78-8.47,2.78c-3.9973,0-6.0793-1.31-6.28-1.31c-0.24-0.12-0.53-0.14-0.79-0.05
			c-0.2599,0.1-0.47,0.29-0.58,0.55c-0.31,0.73-0.76,2.33-1.16,3.86c-0.08-0.37-0.14-0.73-0.19-1.07
			C16.5704,9.5776,20.9404,7.0676,21.1604,6.9476z M19.0104,21.3876c0-0.01,0-0.01,0-0.02c0.36-1.49,1.01-4.09,1.48-5.62
			c1.23,0.45,3.44,1.09,6.14,1.09c3.06,0,5.91-0.8,8.4901-2.39c0.2,2.09,1.0099,5.3,4.05,7.18
			c-0.2965,5.8385-4.5953,13.97-10.08,13.97c-2.6,0-5.06-1.93-6.9-4.67c-0.64-0.95-1.21-2-1.68-3.1
			C19.6104,25.7476,19.0704,23.4876,19.0104,21.3876z M29.0904,37.5976c2.7,0,5.23-1.56,7.27-3.92v2.13l-7.08,5.34l-7.09-5.34v-1.72
			C24.1604,36.2176,26.5504,37.5976,29.0904,37.5976z M20.1204,36.7476l0.0699,0.05c0.1002,0.0755,7.6212,5.7463,7.52,5.67
			c-0.1003,0.0951-4.51,4.2753-4.41,4.18c-7.2957-18.4618,0.8234,2.0842-3.67-9.29L20.1204,36.7476z M3.2204,63.1976
			c-0.24-4.11,0.11-7.72,1.05-10.75c0.97-3.1,3.22-5.84,6.34-7.72c2.66-1.61,5.84-4.34,7.48-5.82
			c2.2116,5.6,7.7408,19.6313,9.7,24.61l0.01,0.03C-5.8842,63.068,5.7337,63.2334,3.2204,63.1976z M55.3304,63.1976
			c-2.5123,0.0358,9.1008-0.1296-24.57,0.35l0.01-0.03c0.055-0.1394,9.6256-24.446,9.69-24.61c1.63,1.47,4.82,4.21,7.48,5.82
			c3.13,1.88,5.38,4.62,6.34,7.72C55.2204,55.4776,55.5704,59.0876,55.3304,63.1976z"></path><path d="M64.8604,19.0976h-17.96c-1.09,0-1.98,0.89-1.98,1.98v14.41c0,0.54,0.21,1.05,0.6,1.4301c0.38,0.36,0.87,0.56,1.38,0.56
			c0.3,0,0.59-0.07,0.87-0.2l4.48-2.16h12.61c1.1,0,1.99-0.89,1.99-1.99v-12.05C66.8504,19.9876,65.9604,19.0976,64.8604,19.0976z
			 M52.0204,33.1176c-0.15,0-0.3,0.03-0.43,0.1l-4.67,2.25l-0.02-14.37l17.95-0.02l0.01,12.04H52.0204z"></path><path fill="#FFF" d="M52.5865 24.6424h-2.9536c-.4141 0-.75-.3359-.75-.75s.3359-.75.75-.75h2.9536c.4141 0 .75.3359.75.75S53.0006 24.6424 52.5865 24.6424zM59.0323 24.6424h-3.4917c-.4141 0-.75-.3359-.75-.75s.3359-.75.75-.75h3.4917c.4141 0 .75.3359.75.75S59.4464 24.6424 59.0323 24.6424zM42.8424 59.9496h-4.2695c-.4141 0-.75-.3359-.75-.75s.3359-.75.75-.75h4.2695c.4141 0 .75.3359.75.75S43.2564 59.9496 42.8424 59.9496z"></path><g><path fill="#FFF" d="M50.855,59.9496h-3.9385c-0.4141,0-0.75-0.3359-0.75-0.75s0.3359-0.75,0.75-0.75h3.9385
			c0.4141,0,0.75,0.3359,0.75,0.75S51.2691,59.9496,50.855,59.9496z"></path></g></svg>