<svg xmlns="http://www.w3.org/2000/svg" viewBox="0 0 32 32" width="48px" fill="orangered" id="stamp-paper"><path d="M4 2.5v27a.5.5 0 0 0 .5.5h23a.5.5 0 0 0 .5-.5V7.793a.504.504 0 0 0-.146-.354L22.56 2.146A.5.5 0 0 0 22.207 2H4.5a.5.5 0 0 0-.5.5zM6 4h15.7a.3.3 0 0 1 .3.3v3.2a.5.5 0 0 0 .5.5h3.2a.3.3 0 0 1 .3.3V28H6V4z"></path><path d="M23.174 20.931a.594.594 0 0 1-.174-.42v-.918a.594.594 0 0 0-.593-.593h-.918a.598.598 0 0 1-.42-.174l-.65-.651a.593.593 0 0 0-.839 0l-.65.651a.59.59 0 0 1-.419.174h-.918a.594.594 0 0 0-.593.593v.918a.598.598 0 0 1-.174.42l-.651.65a.593.593 0 0 0 0 .839l.651.65a.594.594 0 0 1 .174.42v.918c0 .327.266.592.593.592h.918c.157 0 .308.063.42.174l.65.651a.593.593 0 0 0 .839 0l.65-.651a.594.594 0 0 1 .419-.174h.918a.593.593 0 0 0 .593-.593v-.917c0-.157.063-.308.174-.42l.651-.65a.593.593 0 0 0 0-.839l-.651-.65zM20 23.5a1.5 1.5 0 1 1 .001-3.001A1.5 1.5 0 0 1 20 23.5zm4-11.2v.9a.3.3 0 0 1-.3.3H8.3a.3.3 0 0 1-.3-.3v-.9a.3.3 0 0 1 .3-.3h15.4a.3.3 0 0 1 .3.3zM8 9.2v-.9a.3.3 0 0 1 .3-.3h7.4a.3.3 0 0 1 .3.3v.9a.3.3 0 0 1-.3.3H8.3a.3.3 0 0 1-.3-.3zm8 7.1v.9a.3.3 0 0 1-.3.3H8.3a.3.3 0 0 1-.3-.3v-.9a.3.3 0 0 1 .3-.3h7.4a.3.3 0 0 1 .3.3z"></path></svg>