<svg xmlns="http://www.w3.org/2000/svg" enable-background="new 0 0 50 50" width="48px" viewBox="0 0 50 50" id="clock"><path fill="#00a7d5" d="M12.37503 47.42737c-.31.45996-.20001 1.07996.25 1.39996.45996.31 1.07996.20001 1.39996-.26001l1.74005-2.51001c-.61005-.27997-1.21002-.59998-1.78003-.94L12.37503 47.42737zM35.95499 45.14734c-.57996.34003-1.16998.65997-1.77997.94l1.81 2.5c.33002.45001.96002.54999 1.40002.21997.44995-.31995.54999-.94995.21997-1.38995L35.95499 45.14734zM24.99503 6.84735c-10.86065 0-19.64001 8.78753-19.64001 19.64001 0 10.89126 8.90102 19.64997 19.64001 19.64997 10.84999 0 19.64996-8.8031 19.64996-19.64997C44.64499 14.42093 34.8357 6.84735 24.99503 6.84735zM39.155 27.48736h1.65002c-.22003 3.63995-1.66003 6.92999-3.91998 9.47998L35.715 35.79736c-.38995-.39001-1.01996-.39001-1.40997 0-.39001.38995-.39001 1.01996 0 1.40997l1.16998 1.16998c-2.57001 2.26001-5.87 3.70001-9.47998 3.92999v-1.65997c0-.54999-.44-1-1-1-.54999 0-1 .45001-1 1v1.65997c-3.62-.22998-6.91003-1.66998-9.47998-3.91998l1.17999-1.17999c.38995-.39001.38995-1.02002 0-1.40997-.39001-.39001-1.03003-.39001-1.42004 0l-1.16998 1.16998c-2.26001-2.56-3.69-5.84003-3.91998-9.47998h1.64996c.56 0 1-.44 1-1 0-.55005-.44-1-1-1H9.18503c.22998-3.62006 1.65997-6.91003 3.91998-9.47003l1.16998 1.16998c.40002.38 1 .39001 1.42004 0 .38995-.38995.38995-1.01996 0-1.40997l-1.17004-1.16998c2.56-2.25 5.84003-3.69 9.47003-3.92004v1.65002c0 .54999.45001 1 1 1 .56 0 1-.45001 1-1v-1.65002c3.67999.23004 6.95001 1.67004 9.47998 3.91003l-1.16998 1.17999c-.39001.39001-.39001 1.02002 0 1.40997.37.39001 1.04999.38 1.40997 0l1.17004-1.16998c2.26996 2.58002 3.69995 5.89001 3.92999 9.47003H39.155c-.54999 0-1 .44995-1 1C38.155 27.04736 38.60501 27.48736 39.155 27.48736zM32.67502 4.12732v2.13c-.66998-.26001-1.33002-.46997-2-.64996V4.12732c0-.62-.5-1.13001-1.13-1.13001h-9.09998c-.62 0-1.13.51001-1.13 1.13001v1.48004c-.67999.17999-1.35004.39996-2 .65997V4.12732c0-1.71997 1.40997-3.13001 3.13-3.13001h9.09998C31.27499.99731 32.67502 2.40735 32.67502 4.12732z"></path><path fill="#00a7d5" d="M25.99503,23.57733v-6.52997c0-0.55005-0.44-1-1-1c-0.54999,0-1,0.44995-1,1v6.52997
			c-0.83002,0.29999-1.47998,0.96002-1.78003,1.78998h-4.32996c-0.55005,0-1,0.44-1,1c0,0.55005,0.44995,1,1,1H22.215
			c0.41003,1.14001,1.5,1.97003,2.78003,1.97003c1.64996,0,2.97998-1.34003,2.97998-2.97003
			C27.97501,25.07733,27.14499,23.98736,25.99503,23.57733z"></path></svg>