<svg data-v-fde0c5aa="" xmlns="http://www.w3.org/2000/svg" viewBox="0 0 300 300" class="iconLeftSlogan"><!----><defs data-v-fde0c5aa=""><!----></defs><rect data-v-fde0c5aa="" fill="transparent" x="0" y="0" width="500px" height="500px" class="logo-background-square"></rect><defs data-v-fde0c5aa=""><!----></defs><g data-v-fde0c5aa="" id="e09ca930-1642-4c7f-98cd-345815e8db06" fill="#000000" transform="matrix(3.415424792252312,0,0,3.415424792252312,158.49357446581965,110.45657603559793)"><path d="M4.28 13.62L4.28 13.62Q3.21 13.62 2.23 13.25L2.23 13.25L2.23 13.25Q1.26 12.88 0.71 12.29L0.71 12.29L1.04 11.76L1.04 11.76Q1.55 12.31 2.43 12.65L2.43 12.65L2.43 12.65Q3.30 12.99 4.27 12.99L4.27 12.99L4.27 12.99Q5.67 12.99 6.38 12.46L6.38 12.46L6.38 12.46Q7.10 11.93 7.10 11.07L7.10 11.07L7.10 11.07Q7.10 10.42 6.72 10.02L6.72 10.02L6.72 10.02Q6.34 9.63 5.78 9.42L5.78 9.42L5.78 9.42Q5.22 9.21 4.27 8.99L4.27 8.99L4.27 8.99Q3.19 8.72 2.54 8.47L2.54 8.47L2.54 8.47Q1.89 8.22 1.44 7.69L1.44 7.69L1.44 7.69Q0.98 7.17 0.98 6.29L0.98 6.29L0.98 6.29Q0.98 5.57 1.36 4.98L1.36 4.98L1.36 4.98Q1.74 4.38 2.51 4.03L2.51 4.03L2.51 4.03Q3.29 3.68 4.45 3.68L4.45 3.68L4.45 3.68Q5.26 3.68 6.05 3.92L6.05 3.92L6.05 3.92Q6.83 4.16 7.41 4.56L7.41 4.56L7.14 5.14L7.14 5.14Q6.55 4.73 5.84 4.52L5.84 4.52L5.84 4.52Q5.14 4.31 4.45 4.31L4.45 4.31L4.45 4.31Q3.09 4.31 2.39 4.86L2.39 4.86L2.39 4.86Q1.69 5.40 1.69 6.27L1.69 6.27L1.69 6.27Q1.69 6.93 2.07 7.32L2.07 7.32L2.07 7.32Q2.45 7.71 3.01 7.92L3.01 7.92L3.01 7.92Q3.57 8.13 4.54 8.37L4.54 8.37L4.54 8.37Q5.61 8.64 6.26 8.89L6.26 8.89L6.26 8.89Q6.90 9.14 7.36 9.65L7.36 9.65L7.36 9.65Q7.81 10.16 7.81 11.03L7.81 11.03L7.81 11.03Q7.81 11.75 7.43 12.33L7.43 12.33L7.43 12.33Q7.04 12.92 6.24 13.27L6.24 13.27L6.24 13.27Q5.45 13.62 4.28 13.62L4.28 13.62ZM20.20 13.55L19.50 13.55L19.49 5.17L15.39 12.25L15.04 12.25L10.93 5.19L10.93 13.55L10.23 13.55L10.23 3.75L10.84 3.75L15.22 11.33L19.60 3.75L20.19 3.75L20.20 13.55ZM26.19 13.62L26.19 13.62Q25.12 13.62 24.14 13.25L24.14 13.25L24.14 13.25Q23.17 12.88 22.62 12.29L22.62 12.29L22.95 11.76L22.95 11.76Q23.46 12.31 24.34 12.65L24.34 12.65L24.34 12.65Q25.21 12.99 26.18 12.99L26.18 12.99L26.18 12.99Q27.58 12.99 28.29 12.46L28.29 12.46L28.29 12.46Q29.01 11.93 29.01 11.07L29.01 11.07L29.01 11.07Q29.01 10.42 28.63 10.02L28.63 10.02L28.63 10.02Q28.25 9.63 27.69 9.42L27.69 9.42L27.69 9.42Q27.13 9.21 26.18 8.99L26.18 8.99L26.18 8.99Q25.10 8.72 24.45 8.47L24.45 8.47L24.45 8.47Q23.80 8.22 23.34 7.69L23.34 7.69L23.34 7.69Q22.89 7.17 22.89 6.29L22.89 6.29L22.89 6.29Q22.89 5.57 23.27 4.98L23.27 4.98L23.27 4.98Q23.65 4.38 24.42 4.03L24.42 4.03L24.42 4.03Q25.20 3.68 26.36 3.68L26.36 3.68L26.36 3.68Q27.17 3.68 27.96 3.92L27.96 3.92L27.96 3.92Q28.74 4.16 29.32 4.56L29.32 4.56L29.05 5.14L29.05 5.14Q28.46 4.73 27.75 4.52L27.75 4.52L27.75 4.52Q27.05 4.31 26.36 4.31L26.36 4.31L26.36 4.31Q25.00 4.31 24.30 4.86L24.30 4.86L24.30 4.86Q23.60 5.40 23.60 6.27L23.60 6.27L23.60 6.27Q23.60 6.93 23.98 7.32L23.98 7.32L23.98 7.32Q24.36 7.71 24.92 7.92L24.92 7.92L24.92 7.92Q25.48 8.13 26.45 8.37L26.45 8.37L26.45 8.37Q27.52 8.64 28.17 8.89L28.17 8.89L28.17 8.89Q28.81 9.14 29.27 9.65L29.27 9.65L29.27 9.65Q29.72 10.16 29.72 11.03L29.72 11.03L29.72 11.03Q29.72 11.75 29.34 12.33L29.34 12.33L29.34 12.33Q28.95 12.92 28.15 13.27L28.15 13.27L28.15 13.27Q27.36 13.62 26.19 13.62L26.19 13.62Z"></path></g><defs data-v-fde0c5aa=""><linearGradient data-v-fde0c5aa="" gradientTransform="rotate(25)" id="9966747b-19cf-43c3-822e-b8cb297fdf51" x1="0%" y1="0%" x2="100%" y2="0%"><stop data-v-fde0c5aa="" offset="0%" stop-color="#0015D6" stop-opacity="1"></stop><stop data-v-fde0c5aa="" offset="100%" stop-color="#0989FB" stop-opacity="1"></stop></linearGradient></defs><g data-v-fde0c5aa="" id="23685ae1-437c-46a6-91fb-c428201b3b1d" stroke="none" fill="url(#9966747b-19cf-43c3-822e-b8cb297fdf51)" transform="matrix(2.788592347997535,0,0,2.788592347997535,25.220460023731285,79.74296175978456)"><style>.st0{fill:none;stroke:#000;stroke-miterlimit:10}</style><path class="st0" d="M5.3 22.4l20.5 9.8L44 22.4 24.6 12.3z"></path><path class="st0" d="M14.5 27v7s9.5 9.2 20.9 0M41.5 24v5"></path><circle class="st0" cx="41.2" cy="30.4" r="1.7"></circle></g><defs data-v-fde0c5aa=""><!----></defs><g data-v-fde0c5aa="" id="907c0d05-5e00-4c1f-9b54-66fb8bfb448f" fill="#000000" transform="matrix(0.4015948180720664,0,0,0.4015948180720664,160.73780831971823,166.13131142125707)"><path d="M1.75 4.65C1.75 4.03 2.11 3.08 4.21 3.08C5.91 3.08 6.69 3.82 6.80 4.75L7.88 4.75C7.80 3.36 6.68 2.10 4.21 2.10C1.89 2.10 0.73 3.15 0.73 4.66C0.73 7.84 7.07 6.69 7.07 8.96C7.07 10.05 6.09 10.60 4.52 10.60C2.91 10.60 1.61 10.05 1.54 8.71L0.45 8.71C0.59 10.37 1.71 11.59 4.45 11.59C6.73 11.59 8.12 10.64 8.12 8.92C8.12 5.68 1.75 6.80 1.75 4.65ZM20.72 10.57C18.47 10.57 17.21 8.93 17.21 6.85C17.21 4.76 18.47 3.12 20.72 3.12C22.25 3.12 23.25 3.85 23.73 4.98L24.84 4.98C24.25 3.29 22.74 2.10 20.64 2.10C17.85 2.10 16.16 4.21 16.16 6.85C16.16 9.48 17.85 11.59 20.64 11.59C22.74 11.59 24.25 10.40 24.84 8.71L23.73 8.71C23.25 9.84 22.25 10.57 20.72 10.57ZM34.45 2.21L33.40 2.21L33.40 11.48L34.45 11.48ZM50.54 3.22L50.54 2.21L43.72 2.21L43.72 11.48L50.54 11.48L50.54 10.47L44.77 10.47L44.77 7.35L49.92 7.35L49.92 6.33L44.77 6.33L44.77 3.22ZM66.18 2.21L66.18 10.01L60.45 2.21L59.23 2.21L59.23 11.48L60.28 11.48L60.28 3.65L66.01 11.48L67.23 11.48L67.23 2.21ZM80.47 10.57C78.22 10.57 76.96 8.93 76.96 6.85C76.96 4.76 78.22 3.12 80.47 3.12C82.00 3.12 83.01 3.85 83.48 4.98L84.59 4.98C84 3.29 82.49 2.10 80.39 2.10C77.60 2.10 75.91 4.21 75.91 6.85C75.91 9.48 77.60 11.59 80.39 11.59C82.49 11.59 84 10.40 84.59 8.71L83.48 8.71C83.01 9.84 82.00 10.57 80.47 10.57ZM99.97 3.22L99.97 2.21L93.16 2.21L93.16 11.48L99.97 11.48L99.97 10.47L94.21 10.47L94.21 7.35L99.36 7.35L99.36 6.33L94.21 6.33L94.21 3.22ZM116.47 2.21L113.20 6.61L109.89 2.21L108.67 2.21L108.67 11.48L109.72 11.48L109.72 3.81L113.20 8.22L116.63 3.81L116.63 11.48L117.68 11.48L117.68 2.21ZM131.11 2.21L129.79 2.21L125.86 11.48L127.02 11.48L128.16 8.79L132.75 8.79L133.88 11.48L135.04 11.48ZM128.56 7.83L130.45 3.30L132.34 7.83ZM148.97 2.21L141.46 2.21L141.46 3.22L144.69 3.22L144.69 11.48L145.74 11.48L145.74 3.22L148.97 3.22ZM163.74 2.21L163.74 6.33L158.35 6.33L158.35 2.21L157.30 2.21L157.30 11.48L158.35 11.48L158.35 7.35L163.74 7.35L163.74 11.48L164.79 11.48L164.79 2.21ZM174.68 4.65C174.68 4.03 175.04 3.08 177.14 3.08C178.84 3.08 179.62 3.82 179.73 4.75L180.81 4.75C180.73 3.36 179.61 2.10 177.14 2.10C174.82 2.10 173.66 3.15 173.66 4.66C173.66 7.84 180.00 6.69 180.00 8.96C180.00 10.05 179.02 10.60 177.45 10.60C175.84 10.60 174.54 10.05 174.47 8.71L173.38 8.71C173.52 10.37 174.64 11.59 177.38 11.59C179.66 11.59 181.05 10.64 181.05 8.92C181.05 5.68 174.68 6.80 174.68 4.65ZM197.47 2.21L194.21 6.61L190.89 2.21L189.67 2.21L189.67 11.48L190.72 11.48L190.72 3.81L194.21 8.22L197.64 3.81L197.64 11.48L198.69 11.48L198.69 2.21ZM212.11 2.21L210.80 2.21L206.86 11.48L208.03 11.48L209.16 8.79L213.75 8.79L214.89 11.48L216.05 11.48ZM209.57 7.83L211.46 3.30L213.35 7.83ZM225.27 7.92L228.49 7.92L230.73 11.48L231.98 11.48L229.54 7.74C230.58 7.50 231.78 6.90 231.78 5.11C231.78 3.35 230.57 2.21 228.66 2.21L224.22 2.21L224.22 11.48L225.27 11.48ZM225.27 3.21L228.54 3.21C229.85 3.21 230.73 3.93 230.73 5.11C230.73 6.55 229.47 6.93 228.48 6.93L225.27 6.93ZM247.17 2.21L239.65 2.21L239.65 3.22L242.89 3.22L242.89 11.48L243.94 11.48L243.94 3.22L247.17 3.22Z"></path></g></svg>