<svg data-v-423bf9ae="" xmlns="http://www.w3.org/2000/svg" viewBox="0 0 175.11067275777393 60" class="font"><!----><!----><!----><g data-v-423bf9ae="" id="57af88fe-876c-439b-853f-f41ff193289b" fill="black" transform="matrix(6.036217558641619,0,0,6.036217558641619,-4.285710962371553,-22.213280780343574)"><path d="M4.28 13.62L4.28 13.62Q3.21 13.62 2.23 13.25L2.23 13.25L2.23 13.25Q1.26 12.88 0.71 12.29L0.71 12.29L1.04 11.76L1.04 11.76Q1.55 12.31 2.43 12.65L2.43 12.65L2.43 12.65Q3.30 12.99 4.27 12.99L4.27 12.99L4.27 12.99Q5.67 12.99 6.38 12.46L6.38 12.46L6.38 12.46Q7.10 11.93 7.10 11.07L7.10 11.07L7.10 11.07Q7.10 10.42 6.72 10.02L6.72 10.02L6.72 10.02Q6.34 9.63 5.78 9.42L5.78 9.42L5.78 9.42Q5.22 9.21 4.27 8.99L4.27 8.99L4.27 8.99Q3.19 8.72 2.54 8.47L2.54 8.47L2.54 8.47Q1.89 8.22 1.44 7.69L1.44 7.69L1.44 7.69Q0.98 7.17 0.98 6.29L0.98 6.29L0.98 6.29Q0.98 5.57 1.36 4.98L1.36 4.98L1.36 4.98Q1.74 4.38 2.51 4.03L2.51 4.03L2.51 4.03Q3.29 3.68 4.45 3.68L4.45 3.68L4.45 3.68Q5.26 3.68 6.05 3.92L6.05 3.92L6.05 3.92Q6.83 4.16 7.41 4.56L7.41 4.56L7.14 5.14L7.14 5.14Q6.55 4.73 5.84 4.52L5.84 4.52L5.84 4.52Q5.14 4.31 4.45 4.31L4.45 4.31L4.45 4.31Q3.09 4.31 2.39 4.86L2.39 4.86L2.39 4.86Q1.69 5.40 1.69 6.27L1.69 6.27L1.69 6.27Q1.69 6.93 2.07 7.32L2.07 7.32L2.07 7.32Q2.45 7.71 3.01 7.92L3.01 7.92L3.01 7.92Q3.57 8.13 4.54 8.37L4.54 8.37L4.54 8.37Q5.61 8.64 6.26 8.89L6.26 8.89L6.26 8.89Q6.90 9.14 7.36 9.65L7.36 9.65L7.36 9.65Q7.81 10.16 7.81 11.03L7.81 11.03L7.81 11.03Q7.81 11.75 7.43 12.33L7.43 12.33L7.43 12.33Q7.04 12.92 6.24 13.27L6.24 13.27L6.24 13.27Q5.45 13.62 4.28 13.62L4.28 13.62ZM20.20 13.55L19.50 13.55L19.49 5.17L15.39 12.25L15.04 12.25L10.93 5.19L10.93 13.55L10.23 13.55L10.23 3.75L10.84 3.75L15.22 11.33L19.60 3.75L20.19 3.75L20.20 13.55ZM26.19 13.62L26.19 13.62Q25.12 13.62 24.14 13.25L24.14 13.25L24.14 13.25Q23.17 12.88 22.62 12.29L22.62 12.29L22.95 11.76L22.95 11.76Q23.46 12.31 24.34 12.65L24.34 12.65L24.34 12.65Q25.21 12.99 26.18 12.99L26.18 12.99L26.18 12.99Q27.58 12.99 28.29 12.46L28.29 12.46L28.29 12.46Q29.01 11.93 29.01 11.07L29.01 11.07L29.01 11.07Q29.01 10.42 28.63 10.02L28.63 10.02L28.63 10.02Q28.25 9.63 27.69 9.42L27.69 9.42L27.69 9.42Q27.13 9.21 26.18 8.99L26.18 8.99L26.18 8.99Q25.10 8.72 24.45 8.47L24.45 8.47L24.45 8.47Q23.80 8.22 23.34 7.69L23.34 7.69L23.34 7.69Q22.89 7.17 22.89 6.29L22.89 6.29L22.89 6.29Q22.89 5.57 23.27 4.98L23.27 4.98L23.27 4.98Q23.65 4.38 24.42 4.03L24.42 4.03L24.42 4.03Q25.20 3.68 26.36 3.68L26.36 3.68L26.36 3.68Q27.17 3.68 27.96 3.92L27.96 3.92L27.96 3.92Q28.74 4.16 29.32 4.56L29.32 4.56L29.05 5.14L29.05 5.14Q28.46 4.73 27.75 4.52L27.75 4.52L27.75 4.52Q27.05 4.31 26.36 4.31L26.36 4.31L26.36 4.31Q25.00 4.31 24.30 4.86L24.30 4.86L24.30 4.86Q23.60 5.40 23.60 6.27L23.60 6.27L23.60 6.27Q23.60 6.93 23.98 7.32L23.98 7.32L23.98 7.32Q24.36 7.71 24.92 7.92L24.92 7.92L24.92 7.92Q25.48 8.13 26.45 8.37L26.45 8.37L26.45 8.37Q27.52 8.64 28.17 8.89L28.17 8.89L28.17 8.89Q28.81 9.14 29.27 9.65L29.27 9.65L29.27 9.65Q29.72 10.16 29.72 11.03L29.72 11.03L29.72 11.03Q29.72 11.75 29.34 12.33L29.34 12.33L29.34 12.33Q28.95 12.92 28.15 13.27L28.15 13.27L28.15 13.27Q27.36 13.62 26.19 13.62L26.19 13.62Z"></path></g><!----><!----></svg>